<svg width="1440" height="1024" viewBox="0 0 1440 1024" fill="none" xmlns="http://www.w3.org/2000/svg">
<g clip-path="url(#clip0)">
<rect width="1440" height="1024" fill="#FF643D"/>
<path fill-rule="evenodd" clip-rule="evenodd" d="M1521.61 116.449L1345.92 -70.7194L1272.24 -1.55528C1271.82 -1.49047 1271.41 -1.38547 1271.01 -1.23899C1262.79 1.78688 1262.07 21.3653 1269.42 42.4907C1274.34 56.6487 1281.63 67.9084 1288.39 72.8847C1286.07 82.05 1288.56 96.1676 1295.68 109.932C1302.83 123.765 1312.76 133.575 1321.3 136.327C1324.31 145.632 1333.82 156.023 1346.77 163.02C1359.52 169.91 1372.27 171.705 1380.33 168.579C1384.78 176.929 1394.67 185.293 1407.22 190.352C1424.21 197.2 1440.36 195.696 1446.03 187.391L1521.61 116.449Z" fill="#FF0000"/>
<line x1="1285.72" y1="74.5873" x2="1304.72" y2="61.5873" stroke="#FF643D"/>
<line x1="1320.68" y1="136.612" x2="1336.68" y2="123.612" stroke="#FF643D"/>
<line x1="1379.67" y1="169.624" x2="1395.67" y2="155.624" stroke="#FF643D"/>
<path fill-rule="evenodd" clip-rule="evenodd" d="M1428.59 178.742C1449.2 180.384 1465.61 172.187 1465.25 160.434C1464.89 148.68 1447.89 137.82 1427.28 136.178C1417.98 135.437 1409.54 136.699 1403.1 139.388C1400.53 129.796 1390.77 118.825 1377.28 111.536C1368.58 106.835 1359.89 104.506 1352.68 104.493C1352.17 96.4718 1349.47 86.9422 1344.63 77.576C1336.71 62.2608 1325.39 51.8766 1316.32 50.5431C1317.64 42.646 1317.21 32.0976 1314.72 20.9003C1309.86 -0.93166 1299.01 -16.9631 1290.49 -14.9069C1281.97 -12.8508 1279 6.51437 1283.86 28.3463C1287.75 45.8568 1295.5 59.6358 1302.82 63.3437C1301.58 72.4394 1304.24 85.135 1310.65 97.5438C1317.81 111.376 1327.74 121.186 1336.27 123.939C1339.29 133.244 1348.8 143.634 1361.75 150.632C1372.43 156.403 1383.11 158.6 1391.03 157.323C1393.76 167.94 1409.65 177.232 1428.59 178.742Z" fill="white"/>
<ellipse cx="1395.58" cy="43.6974" rx="126.849" ry="76" transform="rotate(50.1204 1395.58 43.6974)" fill="white"/>
<path d="M1319.46 17L1329.96 8L1332.46 19.5L1340.96 29L1326 32L1318 25.5L1319.46 17Z" fill="#FF0000"/>
<path d="M1326 11L1330 8.5" stroke="#FF643D"/>
<path d="M1339 30H1336.5H1336L1337.5 31M1335 29.5L1337 31.5L1341 29L1335 29.5Z" stroke="#FF643D"/>
<path d="M1315.46 19.5L1325.96 10.5L1328.46 22L1336.96 31.5L1322 34.5L1314 28L1315.46 19.5Z" fill="#FF643D"/>
<path d="M1317 24L1319 18L1316 20.5L1316.5 23.5" stroke="#FF0000"/>
<path d="M1316.5 20.5L1317 22L1317.5 20L1318 19.5L1316.5 24V24.5L1317 24H1317.5" stroke="#FF0000"/>
<path d="M1316 24L1315.8 24.5M1315.8 24.5L1315 26.5L1315.5 20.5L1316 23.5L1315.8 24.5Z" stroke="#FF0000"/>
</g>
<defs>
<clipPath id="clip0">
<rect width="1440" height="1024" fill="white"/>
</clipPath>
</defs>
</svg>
