<svg width="1440" height="1024" viewBox="0 0 1440 1024" fill="none" xmlns="http://www.w3.org/2000/svg">
<g clip-path="url(#clip0)">
<rect width="1440" height="1024" fill="#FF643D"/>
<rect x="1311" width="129" height="127" fill="white"/>
<path fill-rule="evenodd" clip-rule="evenodd" d="M1520.61 114.449L1344.92 -72.7194L1271.24 -3.55528C1270.82 -3.49047 1270.41 -3.38547 1270.01 -3.23899C1261.79 -0.213117 1261.07 19.3653 1268.42 40.4907C1273.34 54.6487 1280.63 65.9084 1287.39 70.8847C1285.07 80.05 1287.56 94.1676 1294.68 107.932C1301.83 121.765 1311.76 131.575 1320.3 134.327C1323.31 143.632 1332.82 154.023 1345.77 161.02C1358.52 167.91 1371.27 169.705 1379.33 166.579C1383.78 174.929 1393.67 183.293 1406.22 188.352C1423.21 195.2 1439.36 193.696 1445.03 185.391L1520.61 114.449Z" fill="#FF0000"/>
<path fill-rule="evenodd" clip-rule="evenodd" d="M1535.61 101.449L1359.92 -85.7194L1286.24 -16.5553C1285.82 -16.4905 1285.41 -16.3855 1285.01 -16.239C1276.79 -13.2131 1276.07 6.36534 1283.42 27.4907C1288.34 41.6487 1295.63 52.9084 1302.39 57.8847C1300.07 67.05 1302.56 81.1676 1309.68 94.9322C1316.83 108.765 1326.76 118.575 1335.3 121.327C1338.31 130.632 1347.82 141.023 1360.77 148.02C1373.52 154.91 1386.27 156.705 1394.33 153.579C1398.78 161.929 1408.67 170.293 1421.22 175.352C1438.21 182.2 1454.36 180.696 1460.03 172.391L1535.61 101.449Z" fill="white"/>
<path d="M1344 34H1355L1363 38L1358.5 47L1343.5 46.5L1340 39.5L1344 34Z" fill="#FF643D"/>
<path d="M1393.21 112.528L1395.68 119.479L1393.69 125.881L1384.16 126.067L1381.26 116.419L1387.1 111.851L1393.21 112.528Z" fill="#FF643D"/>
<line x1="1284.67" y1="72.6251" x2="1301.67" y2="57.6251" stroke="#FF643D"/>
<line x1="1319.68" y1="134.612" x2="1335.68" y2="121.612" stroke="#FF643D"/>
<line x1="1378.67" y1="167.624" x2="1394.67" y2="153.624" stroke="#FF643D"/>
<path d="M247 998.694L321 982.5L409.5 1001.5L420 1010.5L424.516 1024H229.988L238.467 1010.5L247 998.694Z" fill="white"/>
<path fill-rule="evenodd" clip-rule="evenodd" d="M243.26 997.625C228.373 1005.45 219.585 1017.67 223.633 1024.92C227.68 1032.18 243.03 1031.71 257.917 1023.89C266.539 1019.35 273.115 1013.35 276.337 1007.69C283.331 1012.78 295.755 1013.59 307.896 1009.02C315.567 1006.14 321.709 1001.64 325.492 996.664C330.615 1001.01 337.658 1004.89 345.673 1007.41C358.396 1011.42 370.064 1010.91 376.106 1006.78C380.726 1012.01 388.081 1017.48 396.882 1021.79C413.572 1029.96 429.138 1030.89 431.649 1023.86C434.161 1016.83 422.666 1004.5 405.976 996.331C394.395 990.659 383.354 988.477 376.842 990.022C372.015 983.634 362.731 977.488 351.558 973.97C339.563 970.195 328.506 970.429 322.217 973.926C315.015 969.896 303.622 969.553 292.469 973.744C281.731 977.779 273.992 984.974 271.518 992.234C264.696 990.213 253.861 992.053 243.26 997.625Z" fill="#F83200"/>
<path fill-rule="evenodd" clip-rule="evenodd" d="M249.472 1005.41C235.584 1012.28 227.506 1023.3 231.431 1030.02C235.355 1036.74 249.795 1036.62 263.684 1029.75C271.727 1025.77 277.822 1020.4 280.765 1015.27C287.429 1020.07 299.135 1021.06 310.49 1017.12C317.95 1014.53 323.825 1010.32 327.261 1005.61C332.123 1009.6 338.695 1013.18 346.124 1015.6C357.803 1019.4 368.48 1019.29 374.24 1015.94C378.642 1020.96 385.831 1026.31 394.449 1030.56C410.287 1038.37 424.953 1039.52 427.205 1033.14C429.458 1026.75 418.444 1015.24 402.606 1007.43C391.972 1002.18 381.867 999.937 375.692 1000.96C371.204 994.787 362.104 988.666 351.134 985.096C339.276 981.238 328.451 981.407 322.756 984.911C315.896 981.403 305.514 981.008 295.412 984.512C285.369 987.996 278.198 994.432 275.985 1001.03C269.532 999.046 259.362 1000.52 249.472 1005.41Z" fill="white"/>
<path d="M333.486 1004.29L325.32 1000.63L325.32 996.521L330.399 990.049L337.686 993.964L337.21 1000.63L333.486 1004.29Z" fill="#FF643D"/>
<path d="M293.762 999.847L299.704 1005.12L301.323 1012.77L292.812 1019.22L285.047 1011.55L287.885 1003.19L293.762 999.847Z" fill="#FF643D"/>
<line x1="271.437" y1="991.757" x2="276.437" y2="1000.76" stroke="#FF643D"/>
<path d="M321.5 973.5L323 985" stroke="#FF643D"/>
<line x1="376.83" y1="990.101" x2="375.496" y2="1001.06" stroke="#FF643D"/>
</g>
<defs>
<clipPath id="clip0">
<rect width="1440" height="1024" fill="white"/>
</clipPath>
</defs>
</svg>
