<svg width="1440" height="1024" viewBox="0 0 1440 1024" fill="none" xmlns="http://www.w3.org/2000/svg">
<g clip-path="url(#clip0)">
<rect width="1440" height="1024" fill="#FF643D"/>
<path fill-rule="evenodd" clip-rule="evenodd" d="M1560.61 123.449L1384.92 -63.7194L1311.24 5.44472C1310.82 5.50953 1310.41 5.61453 1310.01 5.76101C1301.79 8.78688 1301.07 28.3653 1308.42 49.4907C1313.34 63.6487 1320.63 74.9084 1327.39 79.8847C1325.07 89.05 1327.56 103.168 1334.68 116.932C1341.83 130.765 1351.76 140.575 1360.3 143.327C1363.31 152.632 1372.82 163.023 1385.77 170.02C1398.52 176.91 1411.27 178.705 1419.33 175.579C1423.78 183.929 1433.67 192.293 1446.22 197.352C1463.21 204.2 1479.36 202.696 1485.03 194.391L1560.61 123.449Z" fill="#FF0000"/>
<line x1="1313.72" y1="89.5873" x2="1332.72" y2="76.5873" stroke="#FF643D"/>
<line x1="1348.68" y1="151.612" x2="1364.68" y2="138.612" stroke="#FF643D"/>
<path d="M1411.5 183.5L1423.5 170.5" stroke="#FF643D"/>
<g filter="url(#filter0_i)">
<path fill-rule="evenodd" clip-rule="evenodd" d="M1460.62 194.537C1481.23 196.18 1497.64 187.983 1497.28 176.229C1496.92 164.476 1479.92 153.616 1459.31 151.974C1448.21 151.088 1438.32 153.062 1431.62 156.91C1430.23 146.777 1419.97 134.473 1405.28 126.536C1396.58 121.835 1387.89 119.506 1380.68 119.493C1380.17 111.472 1377.47 101.942 1372.63 92.576C1364.62 77.0899 1353.13 66.6454 1344.02 65.5018C1345.63 57.4806 1345.29 46.3681 1342.66 34.5303C1337.8 12.6983 1326.95 -3.33313 1318.43 -1.27696C1309.91 0.779201 1306.94 20.1443 1311.8 41.9763C1315.74 59.6914 1323.63 73.5874 1331.01 77.0996C1329.34 86.259 1331.94 99.5584 1338.65 112.544C1345.81 126.376 1355.74 136.186 1364.27 138.939C1367.29 148.244 1376.8 158.634 1389.75 165.632C1402.2 172.362 1414.65 174.231 1422.74 171.399C1424.1 182.716 1440.67 192.947 1460.62 194.537Z" fill="white"/>
</g>
<ellipse cx="1423.58" cy="58.6974" rx="126.849" ry="76" transform="rotate(50.1204 1423.58 58.6974)" fill="white"/>
</g>
<defs>
<filter id="filter0_i" x="1301.07" y="-40.6377" width="201.621" height="266.042" filterUnits="userSpaceOnUse" color-interpolation-filters="sRGB">
<feFlood flood-opacity="0" result="BackgroundImageFix"/>
<feBlend mode="normal" in="SourceGraphic" in2="BackgroundImageFix" result="shape"/>
<feColorMatrix in="SourceAlpha" type="matrix" values="0 0 0 0 0 0 0 0 0 0 0 0 0 0 0 0 0 0 127 0" result="hardAlpha"/>
<feOffset dx="2" dy="-6"/>
<feGaussianBlur stdDeviation="10"/>
<feComposite in2="hardAlpha" operator="arithmetic" k2="-1" k3="1"/>
<feColorMatrix type="matrix" values="0 0 0 0 0 0 0 0 0 0 0 0 0 0 0 0 0 0 0.25 0"/>
<feBlend mode="normal" in2="shape" result="effect1_innerShadow"/>
</filter>
<clipPath id="clip0">
<rect width="1440" height="1024" fill="white"/>
</clipPath>
</defs>
</svg>
