<svg width="297" height="338" viewBox="0 0 297 338" fill="none" xmlns="http://www.w3.org/2000/svg">
<path fill-rule="evenodd" clip-rule="evenodd" d="M279.608 223.449L103.923 36.2806L30.2381 105.445C29.8203 105.51 29.4117 105.615 29.0133 105.761C20.7856 108.787 20.0706 128.365 27.4163 149.491C32.3393 163.649 39.6334 174.908 46.386 179.885C44.0729 189.05 46.5633 203.168 53.6813 216.932C60.8342 230.765 70.7646 240.575 79.2973 243.327C82.3147 252.632 91.8235 263.023 104.774 270.02C117.525 276.91 130.27 278.705 138.333 275.579C142.783 283.929 152.674 292.293 165.221 297.352C182.207 304.2 198.36 302.696 204.029 294.391L279.608 223.449Z" fill="white"/>
<path d="M65 102H76L84 106L79.5 115L64.5 114.5L61 107.5L65 102Z" fill="#FF643D"/>
<path d="M152.208 193.528L154.679 200.479L152.689 206.881L143.156 207.067L140.26 197.419L146.102 192.851L152.208 193.528Z" fill="#FF643D"/>
</svg>
