<svg width="145" height="145" viewBox="0 0 145 145" fill="none" xmlns="http://www.w3.org/2000/svg">
<path d="M37.9417 18.125C57.4925 18.1311 67.9869 39.2165 72.5 48.5206C77.0312 39.1742 87.4169 18.1854 107.095 18.1854C119.528 18.1854 132.917 26.094 132.917 43.4517C132.917 64.2471 104.255 90.8848 72.5 121.993C40.7329 90.8727 12.0833 64.2411 12.0833 43.4517C12.0833 27.2842 23.9552 18.119 37.9417 18.125ZM37.9477 6.04169C18.7171 6.04169 0 19.2548 0 43.4517C0 71.6119 33.6521 100.406 72.5 138.958C111.348 100.406 145 71.6119 145 43.4517C145 19.2186 126.289 6.1021 107.095 6.1021C93.7787 6.1021 80.2333 12.3975 72.5 25.665C64.7365 12.3371 51.2212 6.04169 37.9477 6.04169V6.04169Z" fill="white"/>
</svg>
