<svg width="796" height="200" viewBox="0 0 796 200" fill="none" xmlns="http://www.w3.org/2000/svg">
<path d="M125.336 98.616L121.017 101.135L121.093 101.265L121.176 101.39L125.336 98.616ZM123.752 112.296L127.588 115.503L127.598 115.492L127.607 115.48L123.752 112.296ZM108.056 125.832L105.786 121.377L105.769 121.386L105.752 121.395L108.056 125.832ZM76.088 127.848L74.6713 132.643L76.088 127.848ZM60.68 122.232L58.6717 126.811L58.7219 126.833L58.7726 126.854L60.68 122.232ZM44.84 116.328L46.285 111.541L42.4048 110.37L40.4559 113.924L44.84 116.328ZM9.992 126.12L6.95475 130.092L6.96371 130.099L6.97271 130.105L9.992 126.12ZM11.864 104.952L14.678 109.085L14.7077 109.065L14.7372 109.044L11.864 104.952ZM31.736 100.2V105.2H36.4363L36.7265 100.509L31.736 100.2ZM34.328 58.296L39.3185 58.6047L39.319 58.5955L34.328 58.296ZM51.464 18.552L54.7414 22.3281L54.7449 22.325L51.464 18.552ZM66.584 9.912L68.1892 14.6473L68.225 14.6352L68.2606 14.6225L66.584 9.912ZM108.488 14.952L111.961 11.355L111.961 11.355L108.488 14.952ZM113.672 50.232L117.97 52.7874L117.985 52.7624L117.999 52.7372L113.672 50.232ZM98.552 53.688L95.2595 57.4509L95.3282 57.511L95.399 57.5686L98.552 53.688ZM96.824 43.32L91.935 42.2723L91.9109 42.3847L91.892 42.498L96.824 43.32ZM94.088 26.616L90.4811 30.0787L90.5517 30.1523L90.6253 30.2229L94.088 26.616ZM63.848 31.368L67.6726 34.5887L67.6863 34.5723L67.7 34.5558L63.848 31.368ZM55.064 57.288L50.0917 56.7625L50.0906 56.7732L50.0895 56.784L55.064 57.288ZM51.752 89.976L56.7251 90.494L56.7265 90.48L51.752 89.976ZM49.88 101.928L45.0057 100.814L43.8291 105.961L49.033 106.856L49.88 101.928ZM72.92 106.968L71.7073 111.819L71.7073 111.819L72.92 106.968ZM85.304 109.848L84.3234 114.751L84.3234 114.751L85.304 109.848ZM107.192 107.976L109.294 112.513L109.318 112.502L109.342 112.49L107.192 107.976ZM118.568 98.904L122.358 102.165L122.364 102.158L118.568 98.904ZM122.456 101.888C122.281 101.888 121.923 101.838 121.54 101.607C121.171 101.387 121.024 101.147 121.017 101.135L129.655 96.0967C128.162 93.5372 125.626 91.888 122.456 91.888V101.888ZM121.176 101.39C121.199 101.425 121.488 101.912 121.488 103.368H131.488C131.488 100.792 131.009 98.111 129.496 95.8425L121.176 101.39ZM121.488 103.368C121.488 106.311 120.779 108.044 119.897 109.112L127.607 115.48C130.373 112.132 131.488 107.913 131.488 103.368H121.488ZM119.916 109.089C114.787 115.225 110.061 119.199 105.786 121.377L110.326 130.287C116.227 127.281 121.965 122.231 127.588 115.503L119.916 109.089ZM105.752 121.395C101.634 123.532 96.4199 124.72 89.912 124.72V134.72C97.6121 134.72 104.494 133.316 110.36 130.269L105.752 121.395ZM89.912 124.72C85.3368 124.72 81.2122 124.148 77.5047 123.053L74.6713 132.643C79.4118 134.044 84.5032 134.72 89.912 134.72V124.72ZM77.5047 123.053C73.506 121.871 68.5439 120.068 62.5874 117.61L58.7726 126.854C64.9121 129.388 70.222 131.329 74.6713 132.643L77.5047 123.053ZM62.6883 117.653C57.055 115.182 51.5866 113.142 46.285 111.541L43.395 121.115C48.2694 122.586 53.361 124.482 58.6717 126.811L62.6883 117.653ZM40.4559 113.924C38.3512 117.762 35.8579 120.4 33.0629 122.099C30.2781 123.792 26.9184 124.72 22.808 124.72V134.72C28.4896 134.72 33.6979 133.416 38.2571 130.645C42.8061 127.88 46.4328 123.822 49.2241 118.732L40.4559 113.924ZM22.808 124.72C18.1418 124.72 15.0495 123.679 13.0113 122.135L6.97271 130.105C11.2705 133.361 16.7222 134.72 22.808 134.72V124.72ZM13.0293 122.148C10.9019 120.521 10.096 118.776 10.096 116.616H0.0959998C0.0959998 122.136 2.55409 126.727 6.95475 130.092L13.0293 122.148ZM10.096 116.616C10.096 113.851 11.2799 111.399 14.678 109.085L9.05004 100.819C3.42414 104.649 0.0959998 109.973 0.0959998 116.616H10.096ZM14.7372 109.044C18.1541 106.645 23.0436 105.2 29.864 105.2V95.2C21.7084 95.2 14.5979 96.923 8.99085 100.86L14.7372 109.044ZM29.864 105.2H31.736V95.2H29.864V105.2ZM36.7265 100.509L39.3185 58.6047L29.3375 57.9873L26.7455 99.8913L36.7265 100.509ZM39.319 58.5955C39.8715 49.387 41.5144 42.129 44.0518 36.6313L34.9722 32.4407C31.7496 39.423 29.9365 48.005 29.337 57.9965L39.319 58.5955ZM44.0518 36.6313C46.641 31.0214 50.1995 26.2701 54.7414 22.3281L48.1866 14.7759C42.5525 19.6659 38.143 25.5706 34.9722 32.4407L44.0518 36.6313ZM54.7449 22.325C58.6593 18.9212 63.1272 16.3633 68.1892 14.6473L64.9788 5.17667C58.7128 7.30073 53.1007 10.5028 48.1831 14.779L54.7449 22.325ZM68.2606 14.6225C73.3579 12.8082 78.7883 11.888 84.584 11.888V1.88799C77.7077 1.88799 71.1381 2.98377 64.9074 5.20148L68.2606 14.6225ZM84.584 11.888C94.1077 11.888 100.66 14.3441 105.015 18.549L111.961 11.355C105.18 4.80786 95.7963 1.88799 84.584 1.88799V11.888ZM105.015 18.549C109.489 22.8687 111.84 28.5189 111.84 35.976H121.84C121.84 26.1531 118.623 17.7873 111.961 11.355L105.015 18.549ZM111.84 35.976C111.84 41.2786 110.877 45.08 109.345 47.7268L117.999 52.7372C120.691 48.088 121.84 42.3854 121.84 35.976H111.84ZM109.374 47.6766C108.051 49.9023 106.659 50.56 104.888 50.56V60.56C110.605 60.56 115.069 57.6657 117.97 52.7874L109.374 47.6766ZM104.888 50.56C102.938 50.56 102.076 50.1093 101.705 49.8074L95.399 57.5686C98.0995 59.7627 101.462 60.56 104.888 60.56V50.56ZM101.845 49.9251C101.587 49.7001 101.248 49.3094 101.248 48.072H91.248C91.248 51.6346 92.4446 54.9879 95.2595 57.4509L101.845 49.9251ZM101.248 48.072C101.248 47.6794 101.366 46.483 101.756 44.142L91.892 42.498C91.5142 44.7649 91.248 46.7366 91.248 48.072H101.248ZM101.713 44.3676C102.342 41.4323 102.688 38.6711 102.688 36.12H92.688C92.688 37.7929 92.458 39.8317 91.935 42.2723L101.713 44.3676ZM102.688 36.12C102.688 31.0364 101.136 26.4509 97.5507 23.0091L90.6253 30.2229C91.8401 31.3891 92.688 33.1396 92.688 36.12H102.688ZM97.6949 23.1533C94.0965 19.4049 88.9848 18.016 83.432 18.016V28.016C87.4792 28.016 89.4715 29.027 90.4811 30.0787L97.6949 23.1533ZM83.432 18.016C73.7743 18.016 65.7192 21.2647 59.996 28.1802L67.7 34.5558C71.1928 30.3353 76.1937 28.016 83.432 28.016V18.016ZM60.0234 28.1473C54.4742 34.7371 51.3822 44.5522 50.0917 56.7625L60.0363 57.8135C61.2418 46.4078 64.0058 38.9429 67.6726 34.5887L60.0234 28.1473ZM50.0895 56.784L46.7775 89.472L56.7265 90.48L60.0385 57.792L50.0895 56.784ZM46.7789 89.458C46.3132 93.9288 45.7165 97.704 45.0057 100.814L54.7543 103.042C55.5795 99.432 56.2308 95.2392 56.7251 90.494L46.7789 89.458ZM49.033 106.856C55.0085 107.883 62.5568 109.531 71.7073 111.819L74.1327 102.117C64.8512 99.7969 57.0395 98.0852 50.727 97.0003L49.033 106.856ZM71.7073 111.819C77.1057 113.168 81.3252 114.151 84.3234 114.751L86.2846 104.945C83.5228 104.393 79.4863 103.456 74.1327 102.117L71.7073 111.819ZM84.3234 114.751C87.4276 115.372 90.3114 115.712 92.936 115.712V105.712C91.1446 105.712 88.9404 105.476 86.2846 104.945L84.3234 114.751ZM92.936 115.712C99.0317 115.712 104.541 114.716 109.294 112.513L105.09 103.439C101.971 104.884 97.9763 105.712 92.936 105.712V115.712ZM109.342 112.49C114.124 110.213 118.45 106.707 122.358 102.165L114.778 95.6428C111.582 99.3566 108.324 101.899 105.042 103.462L109.342 112.49ZM122.364 102.158C122.609 101.872 122.734 101.816 122.706 101.831C122.691 101.839 122.652 101.856 122.596 101.87C122.539 101.884 122.489 101.888 122.456 101.888V91.888C119.227 91.888 116.636 93.4746 114.772 95.65L122.364 102.158ZM139.427 123.96L136.972 128.316L136.985 128.324L136.998 128.331L139.427 123.96ZM123.155 107.112L118.752 109.482L118.759 109.494L118.765 109.506L123.155 107.112ZM125.027 41.736L120.524 39.5623L120.516 39.578L120.509 39.5939L125.027 41.736ZM146.771 15.96L144.027 11.7798L144.017 11.7864L144.007 11.793L146.771 15.96ZM200.339 12.648L197.884 17.0042L197.897 17.0115L197.91 17.0188L200.339 12.648ZM216.755 29.64L212.352 32.0105L212.359 32.0224L212.365 32.0343L216.755 29.64ZM214.739 94.872L210.236 92.6983L210.228 92.714L210.221 92.7299L214.739 94.872ZM192.995 120.648L190.251 116.468L190.241 116.474L190.231 116.481L192.995 120.648ZM183.779 105.816L180.655 101.912L180.639 101.924L180.623 101.937L183.779 105.816ZM197.027 86.664L201.706 88.4256L201.709 88.4167L201.713 88.4077L197.027 86.664ZM194.435 32.808L190.543 35.9468L190.555 35.9622L190.568 35.9776L194.435 32.808ZM156.275 30.792L159.39 34.7028L159.41 34.6868L159.43 34.6706L156.275 30.792ZM143.027 49.944L147.688 51.7536L147.691 51.7444L147.695 51.7353L143.027 49.944ZM145.475 103.944L141.583 107.083L141.595 107.098L141.608 107.114L145.475 103.944ZM162.611 124.72C154.846 124.72 147.965 122.984 141.855 119.589L136.998 128.331C144.712 132.616 153.287 134.72 162.611 134.72V124.72ZM141.881 119.604C135.943 116.259 131.163 111.353 127.544 104.718L118.765 109.506C123.21 117.655 129.278 123.981 136.972 128.316L141.881 119.604ZM127.557 104.741C123.994 98.1253 122.107 90.0481 122.107 80.328H112.107C112.107 91.3439 114.251 101.123 118.752 109.482L127.557 104.741ZM122.107 80.328C122.107 66.3419 124.635 54.2325 129.545 43.8781L120.509 39.5939C114.858 51.5115 112.107 65.1301 112.107 80.328H122.107ZM129.529 43.9097C134.567 33.4749 141.256 25.6168 149.534 20.127L144.007 11.793C134.046 18.3992 126.238 27.7251 120.524 39.5623L129.529 43.9097ZM149.514 20.1402C157.906 14.6328 167.127 11.888 177.299 11.888V1.88799C165.198 1.88799 154.067 5.19114 144.027 11.7798L149.514 20.1402ZM177.299 11.888C185.064 11.888 191.885 13.6245 197.884 17.0042L202.793 8.29176C195.16 3.99151 186.621 1.88799 177.299 1.88799V11.888ZM197.91 17.0188C203.923 20.3592 208.738 25.2979 212.352 32.0105L221.157 27.2695C216.707 19.0061 210.578 12.6168 202.767 8.27721L197.91 17.0188ZM212.365 32.0343C215.914 38.5405 217.803 46.5573 217.803 56.28H227.803C227.803 45.2666 225.659 35.5235 221.144 27.2457L212.365 32.0343ZM217.803 56.28C217.803 70.2537 215.231 82.3517 210.236 92.6983L219.241 97.0457C224.998 85.1203 227.803 71.4903 227.803 56.28H217.803ZM210.221 92.7299C205.286 103.137 198.612 110.981 190.251 116.468L195.738 124.828C205.809 118.219 213.631 108.879 219.257 97.0141L210.221 92.7299ZM190.231 116.481C181.946 121.976 172.782 124.72 162.611 124.72V134.72C174.711 134.72 185.804 131.416 195.758 124.815L190.231 116.481ZM164.051 117.728C172.656 117.728 180.354 115.048 186.934 109.695L180.623 101.937C175.875 105.8 170.421 107.728 164.051 107.728V117.728ZM186.902 109.72C193.482 104.456 198.375 97.2724 201.706 88.4256L192.347 84.9024C189.534 92.3756 185.595 97.9599 180.655 101.912L186.902 109.72ZM201.713 88.4077C205.025 79.5046 206.635 69.5881 206.635 58.728H196.635C196.635 68.6039 195.172 77.3114 192.341 84.9203L201.713 88.4077ZM206.635 58.728C206.635 46.712 204.126 36.744 198.302 29.6384L190.568 35.9776C194.343 40.584 196.635 47.896 196.635 58.728H206.635ZM198.327 29.6692C192.587 22.5515 184.969 18.88 175.859 18.88V28.88C181.916 28.88 186.683 31.1605 190.543 35.9468L198.327 29.6692ZM175.859 18.88C167.333 18.88 159.687 21.5703 153.119 26.9134L159.43 34.6706C164.19 30.7977 169.601 28.88 175.859 28.88V18.88ZM153.159 26.8812C146.659 32.0595 141.775 39.248 138.359 48.1527L147.695 51.7353C150.614 44.128 154.562 38.5485 159.39 34.7028L153.159 26.8812ZM138.366 48.1344C134.934 56.9721 133.275 66.9151 133.275 77.88H143.275C143.275 67.9169 144.783 59.2359 147.688 51.7536L138.366 48.1344ZM133.275 77.88C133.275 89.9042 135.787 99.8959 141.583 107.083L149.367 100.805C145.563 96.0881 143.275 88.7038 143.275 77.88H133.275ZM141.608 107.114C147.359 114.13 154.971 117.728 164.051 117.728V107.728C157.962 107.728 153.19 105.47 149.342 100.774L141.608 107.114ZM250.653 124.824L248.024 129.077L248.041 129.088L248.058 129.098L250.653 124.824ZM238.125 110.712L233.639 112.92L233.646 112.934L233.653 112.948L238.125 110.712ZM242.877 48.216L247.342 50.4659L247.346 50.459L247.349 50.4521L242.877 48.216ZM270.525 18.264L273.142 22.5246L273.154 22.5171L273.166 22.5096L270.525 18.264ZM328.557 7.896L327.89 12.8513L327.902 12.853L328.557 7.896ZM342.381 10.92L340.833 15.6743L340.92 15.7026L341.008 15.7276L342.381 10.92ZM343.533 23.736L339.76 20.4551L339.719 20.5028L339.678 20.5516L343.533 23.736ZM335.325 26.904L336.538 22.0533L336.494 22.0423L336.449 22.032L335.325 26.904ZM322.509 24.456L321.709 29.3915L321.774 29.4021L321.84 29.411L322.509 24.456ZM280.173 32.52L283 36.6443L283.016 36.6335L283.031 36.6226L280.173 32.52ZM259.437 106.248L255.345 109.121L255.38 109.171L255.416 109.22L259.437 106.248ZM287.517 105.672L291.197 109.057L291.197 109.057L287.517 105.672ZM299.613 82.344L304.348 83.9505L304.348 83.9505L299.613 82.344ZM310.413 38.568L305.524 37.5204L305.513 37.571L305.503 37.6219L310.413 38.568ZM313.869 33.096L316.297 37.4668L316.297 37.4668L313.869 33.096ZM330.573 41.16L335.403 42.4545L335.414 42.4137L335.424 42.3727L330.573 41.16ZM323.661 72.12L318.746 71.2036L318.743 71.2201L318.74 71.2367L323.661 72.12ZM322.941 109.128L318.73 111.823L318.755 111.863L318.781 111.901L322.941 109.128ZM338.781 109.56L341.714 113.61L341.759 113.577L341.803 113.543L338.781 109.56ZM349.293 98.904L345.497 95.65L345.486 95.6621L345.476 95.6743L349.293 98.904ZM356.061 98.616L351.742 101.135L351.818 101.265L351.901 101.389L356.061 98.616ZM354.477 112.296L358.324 115.491L358.332 115.48L354.477 112.296ZM340.653 125.256L337.9 121.082L337.9 121.082L340.653 125.256ZM307.821 123.96L304.371 127.579L304.393 127.6L304.416 127.621L307.821 123.96ZM300.045 107.4L304.991 106.665L302.584 90.4761L295.533 105.246L300.045 107.4ZM268.653 124.72C262.893 124.72 257.799 123.313 253.248 120.55L248.058 129.098C254.259 132.863 261.165 134.72 268.653 134.72V124.72ZM253.282 120.571C248.874 117.846 245.3 113.881 242.597 108.476L233.653 112.948C237.095 119.831 241.872 125.274 248.024 129.077L253.282 120.571ZM242.611 108.504C239.942 103.082 238.517 96.5241 238.517 88.68H228.517C228.517 97.7319 230.164 105.862 233.639 112.92L242.611 108.504ZM238.517 88.68C238.517 74.8274 241.472 62.1155 247.342 50.4659L238.412 45.9661C231.802 59.0845 228.517 73.3485 228.517 88.68H238.517ZM247.349 50.4521C253.161 38.8289 261.724 29.5372 273.142 22.5246L267.908 14.0034C254.942 21.9668 245.073 32.643 238.405 45.9799L247.349 50.4521ZM273.166 22.5096C284.426 15.5055 298.111 11.888 314.445 11.888V1.88799C296.603 1.88799 281.008 5.85448 267.884 14.0184L273.166 22.5096ZM314.445 11.888C318.61 11.888 323.089 12.205 327.89 12.8513L329.224 2.94069C324.041 2.24298 319.113 1.88799 314.445 1.88799V11.888ZM327.902 12.853C332.74 13.4919 337.043 14.4403 340.833 15.6743L343.929 6.16564C339.463 4.71167 334.55 3.64409 329.212 2.93904L327.902 12.853ZM341.008 15.7276C341.257 15.7989 341.358 15.8634 341.372 15.8722C341.376 15.8751 341.342 15.85 341.309 15.8033C341.234 15.6966 341.413 15.8539 341.413 16.68H351.413C351.413 14.4341 350.92 12.0953 349.501 10.0687C348.05 7.99595 345.981 6.74834 343.755 6.11237L341.008 15.7276ZM341.413 16.68C341.413 17.7675 341.033 18.9915 339.76 20.4551L347.306 27.0169C349.873 24.0645 351.413 20.5845 351.413 16.68H341.413ZM339.678 20.5516C338.647 21.7997 337.828 22.048 337.053 22.048V32.048C341.271 32.048 344.771 30.0883 347.388 26.9204L339.678 20.5516ZM337.053 22.048C336.766 22.048 336.574 22.0387 336.46 22.0293C336.406 22.0247 336.384 22.0214 336.391 22.0223C336.395 22.023 336.448 22.0309 336.538 22.0533L334.112 31.7547C335.108 32.0037 336.183 32.048 337.053 32.048V22.048ZM336.449 22.032C331.365 20.8587 326.933 20.0083 323.179 19.501L321.84 29.411C325.189 29.8637 329.301 30.6453 334.201 31.7759L336.449 22.032ZM323.309 19.5205C319.47 18.8978 315.457 18.592 311.277 18.592V28.592C314.97 28.592 318.445 28.8622 321.709 29.3915L323.309 19.5205ZM311.277 18.592C298.243 18.592 286.834 21.7864 277.315 28.4174L283.031 36.6226C290.601 31.3496 299.928 28.592 311.277 28.592V18.592ZM277.346 28.3957C268.012 34.7936 261.028 43.3143 256.437 53.851L265.605 57.8449C269.463 48.9897 275.247 41.9583 283 36.6443L277.346 28.3957ZM256.437 53.851C251.922 64.2156 249.685 75.3641 249.685 87.24H259.685C259.685 76.6519 261.672 66.8724 265.605 57.8449L256.437 53.851ZM249.685 87.24C249.685 95.9601 251.365 103.452 255.345 109.121L263.529 103.375C261.174 100.02 259.685 94.8399 259.685 87.24H249.685ZM255.416 109.22C259.558 114.823 265.232 117.872 272.109 117.872V107.872C268.618 107.872 265.845 106.505 263.458 103.276L255.416 109.22ZM272.109 117.872C279.531 117.872 285.954 114.756 291.197 109.057L283.837 102.287C280.249 106.188 276.399 107.872 272.109 107.872V117.872ZM291.197 109.057C296.312 103.497 300.618 94.9447 304.348 83.9505L294.878 80.7375C291.312 91.2473 287.554 98.2471 283.837 102.287L291.197 109.057ZM304.348 83.9505C308.101 72.8891 311.752 58.0458 315.323 39.5141L305.503 37.6219C301.971 55.9542 298.421 70.2949 294.878 80.7375L304.348 83.9505ZM315.302 39.6156C315.699 37.7654 316.266 37.4843 316.297 37.4668L311.441 28.7252C308.017 30.6277 306.28 33.9946 305.524 37.5204L315.302 39.6156ZM316.297 37.4668C317.02 37.0655 318.389 36.656 320.781 36.656V26.656C317.414 26.656 314.175 27.2065 311.441 28.7252L316.297 37.4668ZM320.781 36.656C323.809 36.656 325.217 37.1754 325.73 37.5083C325.835 37.5762 325.883 37.6237 325.899 37.6408C325.913 37.6562 325.917 37.663 325.92 37.6695C325.92 37.6698 326.005 37.8247 326.005 38.28H336.005C336.005 34.5534 334.436 31.2334 331.168 29.1157C328.274 27.2405 324.569 26.656 320.781 26.656V36.656ZM326.005 38.28C326.005 38.4809 325.959 39.0015 325.722 39.9473L335.424 42.3727C335.763 41.0145 336.005 39.6151 336.005 38.28H326.005ZM325.744 39.8655C323.208 49.3236 320.877 59.7721 318.746 71.2036L328.576 73.0364C330.669 61.8119 332.946 51.6204 335.403 42.4545L325.744 39.8655ZM318.74 71.2367C316.711 82.5412 315.637 91.439 315.637 97.752H325.637C325.637 92.353 326.58 84.1628 328.582 73.0033L318.74 71.2367ZM315.637 97.752C315.637 103.217 316.408 108.195 318.73 111.823L327.152 106.433C326.403 105.261 325.637 102.655 325.637 97.752H315.637ZM318.781 111.901C321.39 115.815 325.438 117.584 329.997 117.584V107.584C328.22 107.584 327.564 107.049 327.101 106.355L318.781 111.901ZM329.997 117.584C334.246 117.584 338.183 116.167 341.714 113.61L335.849 105.51C333.812 106.985 331.892 107.584 329.997 107.584V117.584ZM341.803 113.543C345.03 111.095 348.816 107.208 353.11 102.134L345.476 95.6743C341.322 100.584 338.1 103.801 335.759 105.577L341.803 113.543ZM353.089 102.158C353.334 101.872 353.459 101.816 353.431 101.831C353.416 101.839 353.377 101.856 353.321 101.87C353.264 101.884 353.214 101.888 353.181 101.888V91.888C349.953 91.888 347.362 93.4746 345.497 95.65L353.089 102.158ZM353.181 101.888C353.006 101.888 352.648 101.838 352.265 101.607C351.897 101.387 351.749 101.147 351.742 101.135L360.38 96.0966C358.887 93.5372 356.352 91.888 353.181 91.888V101.888ZM351.901 101.389C351.925 101.425 352.213 101.912 352.213 103.368H362.213C362.213 100.792 361.734 98.111 360.221 95.8425L351.901 101.389ZM352.213 103.368C352.213 106.311 351.505 108.044 350.622 109.112L358.332 115.48C361.098 112.132 362.213 107.913 362.213 103.368H352.213ZM350.631 109.101C346.136 114.514 341.883 118.455 337.9 121.082L343.406 129.43C348.447 126.105 353.411 121.406 358.324 115.491L350.631 109.101ZM337.9 121.082C334.361 123.416 329.848 124.72 324.093 124.72V134.72C331.394 134.72 337.921 133.048 343.406 129.43L337.9 121.082ZM324.093 124.72C318.379 124.72 314.257 123.118 311.227 120.299L304.416 127.621C309.641 132.482 316.367 134.72 324.093 134.72V124.72ZM311.272 120.341C308.138 117.354 305.926 112.958 304.991 106.665L295.099 108.135C296.276 116.05 299.248 122.694 304.371 127.579L311.272 120.341ZM295.533 105.246C292.246 112.132 288.341 116.958 283.972 120.065C279.652 123.136 274.611 124.72 268.653 124.72V134.72C276.52 134.72 283.622 132.584 289.766 128.215C295.861 123.882 300.741 117.548 304.557 109.554L295.533 105.246ZM364.144 128.28L364.823 123.326L364.794 123.322L364.764 123.319L364.144 128.28ZM356.224 125.256L352.577 128.676L352.577 128.676L356.224 125.256ZM354.352 117.768L349.365 117.415L349.362 117.453L349.36 117.491L354.352 117.768ZM359.104 82.632L364.026 83.5145L364.027 83.5086L359.104 82.632ZM368.176 42.168L363.361 40.8198L363.358 40.8331L363.354 40.8464L368.176 42.168ZM388.048 45.192L383.305 43.6109L383.299 43.6287L383.293 43.6466L388.048 45.192ZM380.56 76.152L385.469 77.1044L385.47 77.0976L380.56 76.152ZM375.232 113.016L370.252 112.567L369.808 117.498L374.735 117.991L375.232 113.016ZM422.608 98.184L418.743 95.0119L418.734 95.0228L418.725 95.0338L422.608 98.184ZM425.344 30.936L428.799 27.3216L428.799 27.3216L425.344 30.936ZM374.8 25.176L373.292 20.409L373.283 20.4118L373.274 20.4146L374.8 25.176ZM354.496 34.68L351.769 30.4893L351.709 30.5283L351.65 30.569L354.496 34.68ZM346.576 33.96L342.416 36.7335L342.461 36.8006L342.508 36.8662L346.576 33.96ZM346.288 23.16L350.7 25.5129L350.731 25.4549L350.76 25.3961L346.288 23.16ZM350.176 18.984L347.361 14.8516L347.353 14.8575L350.176 18.984ZM373.504 8.75999L374.754 13.6014L374.778 13.5951L374.802 13.5886L373.504 8.75999ZM429.664 11.352L427.489 15.8541L427.51 15.864L427.53 15.8738L429.664 11.352ZM449.392 29.208L453.707 26.6821L453.707 26.6821L449.392 29.208ZM447.664 95.736L452.072 98.0971L452.076 98.089L452.08 98.0808L447.664 95.736ZM422.464 120.792L420.091 116.391L420.091 116.391L422.464 120.792ZM383.008 124.72C377.718 124.72 371.663 124.263 364.823 123.326L363.466 133.234C370.642 134.217 377.162 134.72 383.008 134.72V124.72ZM364.764 123.319C361.227 122.876 360.075 122.053 359.872 121.836L352.577 128.676C355.253 131.531 359.382 132.724 363.524 133.241L364.764 123.319ZM359.872 121.836C359.818 121.779 359.182 120.979 359.345 118.045L349.36 117.491C349.139 121.469 349.75 125.661 352.577 128.676L359.872 121.836ZM359.34 118.121C359.995 108.857 361.548 97.3343 364.026 83.5145L354.183 81.7495C351.669 95.7697 350.054 107.671 349.365 117.415L359.34 118.121ZM364.027 83.5086C366.498 69.6336 369.489 56.2945 372.998 43.4896L363.354 40.8464C359.76 53.9615 356.703 67.5984 354.182 81.7554L364.027 83.5086ZM372.991 43.5161C373.324 42.3261 373.806 41.905 374.358 41.6423L370.059 32.6137C366.578 34.271 364.372 37.2098 363.361 40.8198L372.991 43.5161ZM374.358 41.6423C375.466 41.1148 377.291 40.688 380.128 40.688V30.688C376.437 30.688 372.983 31.2212 370.059 32.6137L374.358 41.6423ZM380.128 40.688C381.374 40.688 382.337 40.776 383.058 40.9099C383.789 41.0457 384.152 41.2069 384.282 41.2794C384.383 41.3357 384.23 41.2717 384.072 41.0083C383.91 40.738 383.912 40.5389 383.912 40.584H393.912C393.912 38.9971 393.548 37.37 392.654 35.8757C391.765 34.3882 390.514 33.3043 389.151 32.5446C386.576 31.1095 383.357 30.688 380.128 30.688V40.688ZM383.912 40.584C383.912 41.2378 383.767 42.2241 383.305 43.6109L392.792 46.7731C393.481 44.7039 393.912 42.6182 393.912 40.584H383.912ZM383.293 43.6466C380.706 51.6066 378.164 62.1533 375.65 75.2064L385.47 77.0976C387.948 64.2307 390.398 54.1374 392.803 46.7374L383.293 43.6466ZM375.652 75.1996C373.127 88.2116 371.325 100.668 370.252 112.567L380.212 113.465C381.251 101.94 383.001 89.8204 385.469 77.1044L375.652 75.1996ZM374.735 117.991C377.816 118.299 381.251 118.448 385.024 118.448V108.448C381.502 108.448 378.408 108.309 375.73 108.041L374.735 117.991ZM385.024 118.448C402.87 118.448 417.029 112.997 426.491 101.334L418.725 95.0338C411.675 103.723 400.778 108.448 385.024 108.448V118.448ZM426.473 101.356C435.75 90.0534 440.136 75.2392 440.136 57.432H430.136C430.136 73.6088 426.171 85.9626 418.743 95.0119L426.473 101.356ZM440.136 57.432C440.136 45.0262 436.561 34.7406 428.799 27.3216L421.889 34.5504C427.184 39.6114 430.136 46.9898 430.136 57.432H440.136ZM428.799 27.3216C421.075 19.9382 410.465 16.576 397.696 16.576V26.576C408.735 26.576 416.558 29.4538 421.889 34.5504L428.799 27.3216ZM397.696 16.576C389.486 16.576 381.346 17.8601 373.292 20.409L376.309 29.943C383.422 27.6918 390.546 26.576 397.696 26.576V16.576ZM373.274 20.4146C365.4 22.9384 358.222 26.2897 351.769 30.4893L357.224 38.8707C362.867 35.1982 369.225 32.2136 376.326 29.9374L373.274 20.4146ZM351.65 30.569C351.191 30.8873 350.831 30.976 350.464 30.976V40.976C352.978 40.976 355.306 40.2007 357.342 38.791L351.65 30.569ZM350.464 30.976C350.4 30.976 350.391 30.9696 350.422 30.9767C350.455 30.9843 350.509 31.0015 350.57 31.0332C350.631 31.0649 350.672 31.0968 350.691 31.1137C350.708 31.129 350.69 31.1166 350.645 31.0538L342.508 36.8662C344.393 39.5053 347.194 40.976 350.464 40.976V30.976ZM350.737 31.1865C350.41 30.6964 350.136 29.9716 350.136 28.776H340.136C340.136 31.6124 340.823 34.3436 342.416 36.7335L350.737 31.1865ZM350.136 28.776C350.136 26.9747 350.444 25.9923 350.7 25.5129L341.876 20.8071C340.596 23.2077 340.136 25.9693 340.136 28.776H350.136ZM350.76 25.3961C351.055 24.8077 351.681 24.013 353 23.1105L347.353 14.8575C345.024 16.451 343.058 18.4403 341.816 20.9239L350.76 25.3961ZM352.991 23.1164C359.072 18.9742 366.302 15.7825 374.754 13.6014L372.255 3.91861C362.851 6.34546 354.528 9.96982 347.361 14.8516L352.991 23.1164ZM374.802 13.5886C383.357 11.289 391.511 10.16 399.28 10.16V0.159998C390.537 0.159998 381.508 1.43103 372.206 3.93141L374.802 13.5886ZM399.28 10.16C410.412 10.16 419.763 12.1214 427.489 15.8541L431.839 6.84992C422.477 2.32656 411.573 0.159998 399.28 0.159998V10.16ZM427.53 15.8738C435.197 19.4919 440.997 24.7643 445.077 31.7339L453.707 26.6821C448.571 17.9077 441.219 11.2761 431.798 6.83021L427.53 15.8738ZM445.077 31.7339C449.147 38.687 451.304 47.2764 451.304 57.72H461.304C461.304 45.8916 458.853 35.473 453.707 26.6821L445.077 31.7339ZM451.304 57.72C451.304 71.5456 448.561 83.385 443.248 93.3912L452.08 98.0808C458.287 86.391 461.304 72.8863 461.304 57.72H451.304ZM443.257 93.3749C437.974 103.236 430.294 110.891 420.091 116.391L424.837 125.193C436.715 118.789 445.835 109.74 452.072 98.0971L443.257 93.3749ZM420.091 116.391C409.923 121.873 397.622 124.72 383.008 124.72V134.72C398.922 134.72 412.926 131.615 424.837 125.193L420.091 116.391ZM530.167 7.75199L530.14 12.7519L530.154 12.752H530.167V7.75199ZM536.503 9.62399L533.576 13.6774L533.652 13.7323L533.73 13.7842L536.503 9.62399ZM536.215 21.432L539.659 25.057L539.705 25.0129L539.751 24.9675L536.215 21.432ZM515.335 24.312L515.169 19.3148L511.076 19.4512L510.403 23.49L515.335 24.312ZM512.743 39.864L517.674 40.6935L517.675 40.686L512.743 39.864ZM509.575 58.728L504.643 57.906L504.641 57.9213L504.638 57.9366L509.575 58.728ZM506.551 77.592L501.614 76.8006L501.61 76.8262L501.606 76.8519L506.551 77.592ZM501.511 113.016L496.554 112.365L495.775 118.295L501.749 118.01L501.511 113.016ZM519.799 127.272L516.545 123.476L516.499 123.515L516.454 123.556L519.799 127.272ZM500.215 129.576L500.015 134.572L500.023 134.572L500.03 134.573L500.215 129.576ZM470.839 130.872L470.114 125.925L470.102 125.927L470.09 125.928L470.839 130.872ZM458.743 129.864L461.867 125.96L461.867 125.96L458.743 129.864ZM461.191 116.76L463.841 121L463.841 121L461.191 116.76ZM474.151 113.736L474.237 118.735L474.248 118.735L474.258 118.735L474.151 113.736ZM480.919 113.592L481.026 118.591L485.296 118.5L485.873 114.268L480.919 113.592ZM481.351 110.424L476.407 109.682L476.402 109.715L476.397 109.748L481.351 110.424ZM486.391 77.88L481.46 77.0519L481.459 77.058L486.391 77.88ZM489.559 59.016L484.632 58.1665L484.63 58.1772L484.628 58.1879L489.559 59.016ZM494.743 24.6L499.701 25.245L500.445 19.5318L494.684 19.6004L494.743 24.6ZM482.647 24.744V29.744H482.677L482.707 29.7436L482.647 24.744ZM475.447 23.16L472.056 26.834L472.202 26.9688L472.358 27.0916L475.447 23.16ZM487.687 7.896L487.47 2.90072L487.451 2.90153L487.432 2.90249L487.687 7.896ZM503.815 7.60799L503.843 2.60807L503.829 2.60799H503.815V7.60799ZM530.167 12.752C531.798 12.752 532.839 13.1451 533.576 13.6774L539.431 5.5706C536.712 3.60689 533.529 2.75199 530.167 2.75199V12.752ZM533.73 13.7842C534.12 14.0445 534.188 14.1873 534.16 14.1405C534.146 14.1171 534.125 14.0732 534.109 14.0176C534.095 13.9629 534.095 13.9331 534.095 13.944H544.095C544.095 10.1907 542.073 7.32813 539.277 5.46374L533.73 13.7842ZM534.095 13.944C534.095 15.8798 533.536 17.0404 532.68 17.8965L539.751 24.9675C542.735 21.9836 544.095 18.1522 544.095 13.944H534.095ZM532.772 17.807C532.061 18.4819 530.725 19.168 528.007 19.168V29.168C532.394 29.168 536.529 28.0301 539.659 25.057L532.772 17.807ZM528.007 19.168C522.425 19.168 518.134 19.2159 515.169 19.3148L515.502 29.3092C518.297 29.2161 522.454 29.168 528.007 29.168V19.168ZM510.403 23.49C510.403 23.4922 510.403 23.4945 510.402 23.4968C510.402 23.4991 510.401 23.5014 510.401 23.5037C510.401 23.506 510.4 23.5083 510.4 23.5107C510.399 23.513 510.399 23.5154 510.399 23.5177C510.398 23.5201 510.398 23.5225 510.397 23.5249C510.397 23.5273 510.397 23.5297 510.396 23.5322C510.396 23.5346 510.395 23.537 510.395 23.5395C510.395 23.542 510.394 23.5445 510.394 23.5469C510.393 23.5494 510.393 23.552 510.393 23.5545C510.392 23.557 510.392 23.5596 510.391 23.5621C510.391 23.5647 510.39 23.5672 510.39 23.5698C510.39 23.5724 510.389 23.575 510.389 23.5776C510.388 23.5803 510.388 23.5829 510.387 23.5855C510.387 23.5882 510.386 23.5909 510.386 23.5935C510.386 23.5962 510.385 23.5989 510.385 23.6016C510.384 23.6043 510.384 23.6071 510.383 23.6098C510.383 23.6126 510.382 23.6153 510.382 23.6181C510.381 23.6209 510.381 23.6236 510.381 23.6264C510.38 23.6293 510.38 23.6321 510.379 23.6349C510.379 23.6377 510.378 23.6406 510.378 23.6435C510.377 23.6463 510.377 23.6492 510.376 23.6521C510.376 23.655 510.375 23.6579 510.375 23.6608C510.374 23.6638 510.374 23.6667 510.373 23.6697C510.373 23.6726 510.372 23.6756 510.372 23.6786C510.371 23.6816 510.371 23.6846 510.37 23.6876C510.37 23.6906 510.369 23.6936 510.369 23.6967C510.368 23.6997 510.368 23.7028 510.367 23.7059C510.367 23.709 510.366 23.7121 510.366 23.7152C510.365 23.7183 510.365 23.7214 510.364 23.7246C510.364 23.7277 510.363 23.7309 510.363 23.734C510.362 23.7372 510.362 23.7404 510.361 23.7436C510.36 23.7468 510.36 23.75 510.359 23.7532C510.359 23.7565 510.358 23.7597 510.358 23.763C510.357 23.7663 510.357 23.7695 510.356 23.7728C510.356 23.7761 510.355 23.7794 510.354 23.7828C510.354 23.7861 510.353 23.7894 510.353 23.7928C510.352 23.7962 510.352 23.7995 510.351 23.8029C510.351 23.8063 510.35 23.8097 510.349 23.8131C510.349 23.8165 510.348 23.82 510.348 23.8234C510.347 23.8269 510.347 23.8303 510.346 23.8338C510.345 23.8373 510.345 23.8408 510.344 23.8443C510.344 23.8478 510.343 23.8514 510.342 23.8549C510.342 23.8584 510.341 23.862 510.341 23.8656C510.34 23.8691 510.339 23.8727 510.339 23.8763C510.338 23.8799 510.338 23.8836 510.337 23.8872C510.336 23.8908 510.336 23.8945 510.335 23.8981C510.335 23.9018 510.334 23.9055 510.333 23.9092C510.333 23.9129 510.332 23.9166 510.332 23.9203C510.331 23.924 510.33 23.9278 510.33 23.9315C510.329 23.9353 510.328 23.9391 510.328 23.9429C510.327 23.9466 510.327 23.9504 510.326 23.9543C510.325 23.9581 510.325 23.9619 510.324 23.9658C510.323 23.9696 510.323 23.9735 510.322 23.9774C510.321 23.9812 510.321 23.9851 510.32 23.989C510.319 23.993 510.319 23.9969 510.318 24.0008C510.317 24.0048 510.317 24.0087 510.316 24.0127C510.316 24.0167 510.315 24.0207 510.314 24.0247C510.314 24.0287 510.313 24.0327 510.312 24.0367C510.311 24.0408 510.311 24.0448 510.31 24.0489C510.309 24.0529 510.309 24.057 510.308 24.0611C510.307 24.0652 510.307 24.0693 510.306 24.0734C510.305 24.0776 510.305 24.0817 510.304 24.0859C510.303 24.09 510.303 24.0942 510.302 24.0984C510.301 24.1026 510.3 24.1068 510.3 24.111C510.299 24.1152 510.298 24.1195 510.298 24.1237C510.297 24.1279 510.296 24.1322 510.296 24.1365C510.295 24.1408 510.294 24.1451 510.293 24.1494C510.293 24.1537 510.292 24.158 510.291 24.1624C510.291 24.1667 510.29 24.1711 510.289 24.1754C510.288 24.1798 510.288 24.1842 510.287 24.1886C510.286 24.193 510.285 24.1974 510.285 24.2019C510.284 24.2063 510.283 24.2107 510.282 24.2152C510.282 24.2197 510.281 24.2241 510.28 24.2286C510.279 24.2331 510.279 24.2376 510.278 24.2422C510.277 24.2467 510.276 24.2512 510.276 24.2558C510.275 24.2604 510.274 24.2649 510.273 24.2695C510.273 24.2741 510.272 24.2787 510.271 24.2833C510.27 24.2879 510.27 24.2926 510.269 24.2972C510.268 24.3019 510.267 24.3065 510.266 24.3112C510.266 24.3159 510.265 24.3206 510.264 24.3253C510.263 24.33 510.262 24.3347 510.262 24.3395C510.261 24.3442 510.26 24.349 510.259 24.3538C510.259 24.3585 510.258 24.3633 510.257 24.3681C510.256 24.3729 510.255 24.3777 510.255 24.3826C510.254 24.3874 510.253 24.3923 510.252 24.3971C510.251 24.402 510.25 24.4069 510.25 24.4118C510.249 24.4167 510.248 24.4216 510.247 24.4265C510.246 24.4314 510.246 24.4364 510.245 24.4413C510.244 24.4463 510.243 24.4513 510.242 24.4562C510.241 24.4612 510.241 24.4662 510.24 24.4713C510.239 24.4763 510.238 24.4813 510.237 24.4864C510.236 24.4914 510.236 24.4965 510.235 24.5015C510.234 24.5066 510.233 24.5117 510.232 24.5168C510.231 24.5219 510.23 24.5271 510.23 24.5322C510.229 24.5374 510.228 24.5425 510.227 24.5477C510.226 24.5529 510.225 24.558 510.224 24.5632C510.224 24.5685 510.223 24.5737 510.222 24.5789C510.221 24.5841 510.22 24.5894 510.219 24.5947C510.218 24.5999 510.217 24.6052 510.217 24.6105C510.216 24.6158 510.215 24.6211 510.214 24.6264C510.213 24.6318 510.212 24.6371 510.211 24.6424C510.21 24.6478 510.209 24.6532 510.209 24.6586C510.208 24.664 510.207 24.6694 510.206 24.6748C510.205 24.6802 510.204 24.6856 510.203 24.6911C510.202 24.6965 510.201 24.702 510.2 24.7075C510.199 24.713 510.199 24.7184 510.198 24.724C510.197 24.7295 510.196 24.735 510.195 24.7405C510.194 24.7461 510.193 24.7516 510.192 24.7572C510.191 24.7628 510.19 24.7684 510.189 24.774C510.188 24.7796 510.187 24.7852 510.186 24.7908C510.186 24.7965 510.185 24.8021 510.184 24.8078C510.183 24.8134 510.182 24.8191 510.181 24.8248C510.18 24.8305 510.179 24.8362 510.178 24.8419C510.177 24.8477 510.176 24.8534 510.175 24.8592C510.174 24.8649 510.173 24.8707 510.172 24.8765C510.171 24.8823 510.17 24.8881 510.169 24.8939C510.168 24.8997 510.167 24.9055 510.166 24.9114C510.165 24.9172 510.164 24.9231 510.163 24.929C510.162 24.9349 510.161 24.9408 510.161 24.9467C510.16 24.9526 510.159 24.9585 510.158 24.9645C510.157 24.9704 510.156 24.9763 510.155 24.9823C510.154 24.9883 510.153 24.9943 510.152 25.0003C510.151 25.0063 510.15 25.0123 510.149 25.0183C510.148 25.0244 510.147 25.0304 510.146 25.0365C510.145 25.0426 510.144 25.0486 510.142 25.0547C510.141 25.0608 510.14 25.0669 510.139 25.0731C510.138 25.0792 510.137 25.0853 510.136 25.0915C510.135 25.0976 510.134 25.1038 510.133 25.11C510.132 25.1162 510.131 25.1224 510.13 25.1286C510.129 25.1348 510.128 25.1411 510.127 25.1473C510.126 25.1536 510.125 25.1598 510.124 25.1661C510.123 25.1724 510.122 25.1787 510.121 25.185C510.12 25.1913 510.119 25.1976 510.118 25.204C510.117 25.2103 510.116 25.2167 510.114 25.223C510.113 25.2294 510.112 25.2358 510.111 25.2422C510.11 25.2486 510.109 25.255 510.108 25.2615C510.107 25.2679 510.106 25.2743 510.105 25.2808C510.104 25.2873 510.103 25.2937 510.102 25.3002C510.1 25.3067 510.099 25.3132 510.098 25.3198C510.097 25.3263 510.096 25.3328 510.095 25.3394C510.094 25.3459 510.093 25.3525 510.092 25.3591C510.091 25.3657 510.09 25.3723 510.088 25.3789C510.087 25.3855 510.086 25.3922 510.085 25.3988C510.084 25.4055 510.083 25.4121 510.082 25.4188C510.081 25.4255 510.08 25.4322 510.078 25.4389C510.077 25.4456 510.076 25.4523 510.075 25.4591C510.074 25.4658 510.073 25.4726 510.072 25.4793C510.071 25.4861 510.069 25.4929 510.068 25.4997C510.067 25.5065 510.066 25.5133 510.065 25.5202C510.064 25.527 510.063 25.5338 510.062 25.5407C510.06 25.5476 510.059 25.5545 510.058 25.5613C510.057 25.5682 510.056 25.5752 510.055 25.5821C510.053 25.589 510.052 25.5959 510.051 25.6029C510.05 25.6099 510.049 25.6168 510.048 25.6238C510.046 25.6308 510.045 25.6378 510.044 25.6448C510.043 25.6518 510.042 25.6589 510.041 25.6659C510.039 25.673 510.038 25.68 510.037 25.6871C510.036 25.6942 510.035 25.7013 510.034 25.7084C510.032 25.7155 510.031 25.7226 510.03 25.7298C510.029 25.7369 510.028 25.7441 510.026 25.7512C510.025 25.7584 510.024 25.7656 510.023 25.7728C510.022 25.78 510.02 25.7872 510.019 25.7945C510.018 25.8017 510.017 25.8089 510.016 25.8162C510.014 25.8235 510.013 25.8308 510.012 25.838C510.011 25.8453 510.01 25.8527 510.008 25.86C510.007 25.8673 510.006 25.8746 510.005 25.882C510.003 25.8894 510.002 25.8967 510.001 25.9041C510 25.9115 509.998 25.9189 509.997 25.9263C509.996 25.9337 509.995 25.9412 509.994 25.9486C509.992 25.9561 509.991 25.9635 509.99 25.971C509.989 25.9785 509.987 25.986 509.986 25.9935C509.985 26.001 509.984 26.0085 509.982 26.0161C509.981 26.0236 509.98 26.0312 509.978 26.0388C509.977 26.0463 509.976 26.0539 509.975 26.0615C509.973 26.0691 509.972 26.0767 509.971 26.0844C509.97 26.092 509.968 26.0996 509.967 26.1073C509.966 26.115 509.965 26.1227 509.963 26.1303C509.962 26.138 509.961 26.1458 509.959 26.1535C509.958 26.1612 509.957 26.1689 509.956 26.1767C509.954 26.1845 509.953 26.1922 509.952 26.2C509.95 26.2078 509.949 26.2156 509.948 26.2234C509.946 26.2312 509.945 26.2391 509.944 26.2469C509.942 26.2548 509.941 26.2626 509.94 26.2705C509.939 26.2784 509.937 26.2863 509.936 26.2942C509.935 26.3021 509.933 26.31 509.932 26.318C509.931 26.3259 509.929 26.3339 509.928 26.3418C509.927 26.3498 509.925 26.3578 509.924 26.3658C509.923 26.3738 509.921 26.3818 509.92 26.3899C509.919 26.3979 509.917 26.4059 509.916 26.414C509.915 26.4221 509.913 26.4302 509.912 26.4382C509.911 26.4463 509.909 26.4545 509.908 26.4626C509.907 26.4707 509.905 26.4788 509.904 26.487C509.902 26.4952 509.901 26.5033 509.9 26.5115C509.898 26.5197 509.897 26.5279 509.896 26.5361C509.894 26.5443 509.893 26.5526 509.891 26.5608C509.89 26.5691 509.889 26.5773 509.887 26.5856C509.886 26.5939 509.885 26.6022 509.883 26.6105C509.882 26.6188 509.88 26.6271 509.879 26.6355C509.878 26.6438 509.876 26.6522 509.875 26.6605C509.873 26.6689 509.872 26.6773 509.871 26.6857C509.869 26.6941 509.868 26.7025 509.866 26.711C509.865 26.7194 509.864 26.7278 509.862 26.7363C509.861 26.7448 509.859 26.7532 509.858 26.7617C509.857 26.7702 509.855 26.7787 509.854 26.7873C509.852 26.7958 509.851 26.8043 509.849 26.8129C509.848 26.8214 509.847 26.83 509.845 26.8386C509.844 26.8472 509.842 26.8558 509.841 26.8644C509.839 26.873 509.838 26.8817 509.837 26.8903C509.835 26.899 509.834 26.9076 509.832 26.9163C509.831 26.925 509.829 26.9337 509.828 26.9424C509.826 26.9511 509.825 26.9598 509.824 26.9686C509.822 26.9773 509.821 26.9861 509.819 26.9948C509.818 27.0036 509.816 27.0124 509.815 27.0212C509.813 27.03 509.812 27.0388 509.81 27.0476C509.809 27.0565 509.807 27.0653 509.806 27.0742C509.804 27.0831 509.803 27.0919 509.801 27.1008C509.8 27.1097 509.799 27.1186 509.797 27.1276C509.796 27.1365 509.794 27.1454 509.793 27.1544C509.791 27.1633 509.79 27.1723 509.788 27.1813C509.787 27.1903 509.785 27.1993 509.784 27.2083C509.782 27.2173 509.781 27.2264 509.779 27.2354C509.778 27.2444 509.776 27.2535 509.775 27.2626C509.773 27.2717 509.771 27.2808 509.77 27.2899C509.768 27.299 509.767 27.3081 509.765 27.3172C509.764 27.3264 509.762 27.3355 509.761 27.3447C509.759 27.3539 509.758 27.3631 509.756 27.3723C509.755 27.3815 509.753 27.3907 509.752 27.3999C509.75 27.4092 509.749 27.4184 509.747 27.4277C509.745 27.4369 509.744 27.4462 509.742 27.4555C509.741 27.4648 509.739 27.4741 509.738 27.4834C509.736 27.4928 509.735 27.5021 509.733 27.5115C509.731 27.5208 509.73 27.5302 509.728 27.5396C509.727 27.549 509.725 27.5584 509.724 27.5678C509.722 27.5772 509.721 27.5866 509.719 27.5961C509.717 27.6055 509.716 27.615 509.714 27.6245C509.713 27.634 509.711 27.6434 509.709 27.653C509.708 27.6625 509.706 27.672 509.705 27.6815C509.703 27.6911 509.702 27.7006 509.7 27.7102C509.698 27.7198 509.697 27.7294 509.695 27.739C509.694 27.7486 509.692 27.7582 509.69 27.7678C509.689 27.7774 509.687 27.7871 509.685 27.7968C509.684 27.8064 509.682 27.8161 509.681 27.8258C509.679 27.8355 509.677 27.8452 509.676 27.8549C509.674 27.8646 509.673 27.8744 509.671 27.8841C509.669 27.8939 509.668 27.9037 509.666 27.9135C509.664 27.9232 509.663 27.933 509.661 27.9429C509.66 27.9527 509.658 27.9625 509.656 27.9724C509.655 27.9822 509.653 27.9921 509.651 28.002C509.65 28.0118 509.648 28.0217 509.646 28.0316C509.645 28.0415 509.643 28.0515 509.641 28.0614C509.64 28.0714 509.638 28.0813 509.636 28.0913C509.635 28.1012 509.633 28.1112 509.631 28.1212C509.63 28.1312 509.628 28.1413 509.626 28.1513C509.625 28.1613 509.623 28.1714 509.621 28.1814C509.62 28.1915 509.618 28.2016 509.616 28.2117C509.615 28.2218 509.613 28.2319 509.611 28.242C509.61 28.2521 509.608 28.2623 509.606 28.2724C509.605 28.2826 509.603 28.2927 509.601 28.3029C509.599 28.3131 509.598 28.3233 509.596 28.3335C509.594 28.3438 509.593 28.354 509.591 28.3642C509.589 28.3745 509.587 28.3847 509.586 28.395C509.584 28.4053 509.582 28.4156 509.581 28.4259C509.579 28.4362 509.577 28.4465 509.575 28.4569C509.574 28.4672 509.572 28.4776 509.57 28.488C509.569 28.4983 509.567 28.5087 509.565 28.5191C509.563 28.5295 509.562 28.5399 509.56 28.5504C509.558 28.5608 509.556 28.5712 509.555 28.5817C509.553 28.5922 509.551 28.6027 509.549 28.6131C509.548 28.6236 509.546 28.6341 509.544 28.6447C509.542 28.6552 509.541 28.6657 509.539 28.6763C509.537 28.6868 509.535 28.6974 509.534 28.708C509.532 28.7186 509.53 28.7292 509.528 28.7398C509.527 28.7504 509.525 28.7611 509.523 28.7717C509.521 28.7824 509.519 28.793 509.518 28.8037C509.516 28.8144 509.514 28.8251 509.512 28.8358C509.511 28.8465 509.509 28.8572 509.507 28.868C509.505 28.8787 509.503 28.8895 509.502 28.9002C509.5 28.911 509.498 28.9218 509.496 28.9326C509.494 28.9434 509.493 28.9542 509.491 28.965C509.489 28.9759 509.487 28.9867 509.485 28.9976C509.484 29.0084 509.482 29.0193 509.48 29.0302C509.478 29.0411 509.476 29.052 509.474 29.0629C509.473 29.0739 509.471 29.0848 509.469 29.0958C509.467 29.1067 509.465 29.1177 509.464 29.1287C509.462 29.1397 509.46 29.1507 509.458 29.1617C509.456 29.1727 509.454 29.1837 509.452 29.1948C509.451 29.2058 509.449 29.2169 509.447 29.228C509.445 29.239 509.443 29.2501 509.441 29.2613C509.44 29.2724 509.438 29.2835 509.436 29.2946C509.434 29.3058 509.432 29.3169 509.43 29.3281C509.428 29.3393 509.427 29.3504 509.425 29.3616C509.423 29.3729 509.421 29.3841 509.419 29.3953C509.417 29.4065 509.415 29.4178 509.413 29.429C509.412 29.4403 509.41 29.4516 509.408 29.4629C509.406 29.4742 509.404 29.4855 509.402 29.4968C509.4 29.5081 509.398 29.5195 509.396 29.5308C509.395 29.5422 509.393 29.5536 509.391 29.5649C509.389 29.5763 509.387 29.5877 509.385 29.5991C509.383 29.6106 509.381 29.622 509.379 29.6334C509.377 29.6449 509.376 29.6564 509.374 29.6678C509.372 29.6793 509.37 29.6908 509.368 29.7023C509.366 29.7138 509.364 29.7253 509.362 29.7369C509.36 29.7484 509.358 29.76 509.356 29.7716C509.354 29.7831 509.352 29.7947 509.351 29.8063C509.349 29.8179 509.347 29.8295 509.345 29.8412C509.343 29.8528 509.341 29.8644 509.339 29.8761C509.337 29.8878 509.335 29.8994 509.333 29.9111C509.331 29.9228 509.329 29.9345 509.327 29.9463C509.325 29.958 509.323 29.9697 509.321 29.9815C509.319 29.9932 509.317 30.005 509.315 30.0168C509.314 30.0286 509.312 30.0404 509.31 30.0522C509.308 30.064 509.306 30.0759 509.304 30.0877C509.302 30.0996 509.3 30.1114 509.298 30.1233C509.296 30.1352 509.294 30.1471 509.292 30.159C509.29 30.1709 509.288 30.1828 509.286 30.1947C509.284 30.2067 509.282 30.2186 509.28 30.2306C509.278 30.2426 509.276 30.2546 509.274 30.2666C509.272 30.2786 509.27 30.2906 509.268 30.3026C509.266 30.3147 509.264 30.3267 509.262 30.3388C509.26 30.3508 509.258 30.3629 509.256 30.375C509.254 30.3871 509.252 30.3992 509.25 30.4113C509.248 30.4235 509.246 30.4356 509.244 30.4477C509.242 30.4599 509.24 30.4721 509.238 30.4843C509.236 30.4964 509.234 30.5086 509.231 30.5209C509.229 30.5331 509.227 30.5453 509.225 30.5576C509.223 30.5698 509.221 30.5821 509.219 30.5943C509.217 30.6066 509.215 30.6189 509.213 30.6312C509.211 30.6435 509.209 30.6559 509.207 30.6682C509.205 30.6805 509.203 30.6929 509.201 30.7053C509.199 30.7176 509.197 30.73 509.195 30.7424C509.192 30.7548 509.19 30.7672 509.188 30.7797C509.186 30.7921 509.184 30.8046 509.182 30.817C509.18 30.8295 509.178 30.842 509.176 30.8545C509.174 30.8669 509.172 30.8795 509.17 30.892C509.168 30.9045 509.165 30.917 509.163 30.9296C509.161 30.9422 509.159 30.9547 509.157 30.9673C509.155 30.9799 509.153 30.9925 509.151 31.0051C509.149 31.0177 509.147 31.0304 509.144 31.043C509.142 31.0557 509.14 31.0683 509.138 31.081C509.136 31.0937 509.134 31.1064 509.132 31.1191C509.13 31.1318 509.128 31.1445 509.125 31.1573C509.123 31.17 509.121 31.1828 509.119 31.1955C509.117 31.2083 509.115 31.2211 509.113 31.2339C509.111 31.2467 509.108 31.2595 509.106 31.2723C509.104 31.2852 509.102 31.298 509.1 31.3109C509.098 31.3237 509.096 31.3366 509.093 31.3495C509.091 31.3624 509.089 31.3753 509.087 31.3882C509.085 31.4012 509.083 31.4141 509.08 31.4271C509.078 31.44 509.076 31.453 509.074 31.466C509.072 31.4789 509.07 31.492 509.067 31.505C509.065 31.518 509.063 31.531 509.061 31.5441C509.059 31.5571 509.057 31.5702 509.054 31.5833C509.052 31.5963 509.05 31.6094 509.048 31.6225C509.046 31.6356 509.043 31.6488 509.041 31.6619C509.039 31.675 509.037 31.6882 509.035 31.7014C509.033 31.7145 509.03 31.7277 509.028 31.7409C509.026 31.7541 509.024 31.7673 509.022 31.7806C509.019 31.7938 509.017 31.8071 509.015 31.8203C509.013 31.8336 509.01 31.8469 509.008 31.8602C509.006 31.8734 509.004 31.8868 509.002 31.9001C508.999 31.9134 508.997 31.9267 508.995 31.9401C508.993 31.9535 508.99 31.9668 508.988 31.9802C508.986 31.9936 508.984 32.007 508.982 32.0204C508.979 32.0338 508.977 32.0473 508.975 32.0607C508.973 32.0742 508.97 32.0876 508.968 32.1011C508.966 32.1146 508.964 32.1281 508.961 32.1416C508.959 32.1551 508.957 32.1686 508.955 32.1821C508.952 32.1957 508.95 32.2092 508.948 32.2228C508.946 32.2364 508.943 32.25 508.941 32.2636C508.939 32.2772 508.936 32.2908 508.934 32.3044C508.932 32.3181 508.93 32.3317 508.927 32.3454C508.925 32.359 508.923 32.3727 508.921 32.3864C508.918 32.4001 508.916 32.4138 508.914 32.4275C508.911 32.4412 508.909 32.455 508.907 32.4687C508.905 32.4825 508.902 32.4963 508.9 32.5101C508.898 32.5238 508.895 32.5376 508.893 32.5515C508.891 32.5653 508.888 32.5791 508.886 32.5929C508.884 32.6068 508.882 32.6207 508.879 32.6345C508.877 32.6484 508.875 32.6623 508.872 32.6762C508.87 32.6901 508.868 32.7041 508.865 32.718C508.863 32.7319 508.861 32.7459 508.858 32.7599C508.856 32.7738 508.854 32.7878 508.851 32.8018C508.849 32.8158 508.847 32.8298 508.844 32.8439C508.842 32.8579 508.84 32.8719 508.837 32.886C508.835 32.9001 508.833 32.9141 508.83 32.9282C508.828 32.9423 508.826 32.9564 508.823 32.9706C508.821 32.9847 508.818 32.9988 508.816 33.013C508.814 33.0271 508.811 33.0413 508.809 33.0555C508.807 33.0697 508.804 33.0839 508.802 33.0981C508.8 33.1123 508.797 33.1265 508.795 33.1408C508.792 33.155 508.79 33.1693 508.788 33.1836C508.785 33.1979 508.783 33.2121 508.781 33.2265C508.778 33.2408 508.776 33.2551 508.773 33.2694C508.771 33.2838 508.769 33.2981 508.766 33.3125C508.764 33.3269 508.761 33.3412 508.759 33.3556C508.757 33.37 508.754 33.3845 508.752 33.3989C508.749 33.4133 508.747 33.4278 508.745 33.4422C508.742 33.4567 508.74 33.4712 508.737 33.4857C508.735 33.5002 508.733 33.5147 508.73 33.5292C508.728 33.5437 508.725 33.5583 508.723 33.5728C508.72 33.5874 508.718 33.6019 508.716 33.6165C508.713 33.6311 508.711 33.6457 508.708 33.6603C508.706 33.6749 508.703 33.6896 508.701 33.7042C508.698 33.7189 508.696 33.7335 508.694 33.7482C508.691 33.7629 508.689 33.7776 508.686 33.7923C508.684 33.807 508.681 33.8217 508.679 33.8365C508.676 33.8512 508.674 33.866 508.671 33.8807C508.669 33.8955 508.667 33.9103 508.664 33.9251C508.662 33.9399 508.659 33.9547 508.657 33.9695C508.654 33.9844 508.652 33.9992 508.649 34.0141C508.647 34.0289 508.644 34.0438 508.642 34.0587C508.639 34.0736 508.637 34.0885 508.634 34.1034C508.632 34.1184 508.629 34.1333 508.627 34.1482C508.624 34.1632 508.622 34.1782 508.619 34.1932C508.617 34.2081 508.614 34.2231 508.612 34.2382C508.609 34.2532 508.607 34.2682 508.604 34.2833C508.602 34.2983 508.599 34.3134 508.597 34.3284C508.594 34.3435 508.592 34.3586 508.589 34.3737C508.587 34.3888 508.584 34.4039 508.582 34.4191C508.579 34.4342 508.577 34.4494 508.574 34.4646C508.572 34.4797 508.569 34.4949 508.567 34.5101C508.564 34.5253 508.562 34.5405 508.559 34.5558C508.556 34.571 508.554 34.5862 508.551 34.6015C508.549 34.6168 508.546 34.632 508.544 34.6473C508.541 34.6626 508.539 34.6779 508.536 34.6933C508.534 34.7086 508.531 34.7239 508.528 34.7393C508.526 34.7546 508.523 34.77 508.521 34.7854C508.518 34.8008 508.516 34.8162 508.513 34.8316C508.51 34.847 508.508 34.8624 508.505 34.8779C508.503 34.8933 508.5 34.9088 508.498 34.9243C508.495 34.9397 508.492 34.9552 508.49 34.9707C508.487 34.9863 508.485 35.0018 508.482 35.0173C508.479 35.0329 508.477 35.0484 508.474 35.064C508.472 35.0795 508.469 35.0951 508.466 35.1107C508.464 35.1263 508.461 35.1419 508.459 35.1576C508.456 35.1732 508.453 35.1889 508.451 35.2045C508.448 35.2202 508.446 35.2359 508.443 35.2516C508.44 35.2672 508.438 35.283 508.435 35.2987C508.433 35.3144 508.43 35.3301 508.427 35.3459C508.425 35.3617 508.422 35.3774 508.419 35.3932C508.417 35.409 508.414 35.4248 508.412 35.4406C508.409 35.4564 508.406 35.4723 508.404 35.4881C508.401 35.5039 508.398 35.5198 508.396 35.5357C508.393 35.5516 508.39 35.5675 508.388 35.5834C508.385 35.5993 508.382 35.6152 508.38 35.6311C508.377 35.6471 508.374 35.663 508.372 35.679C508.369 35.695 508.366 35.711 508.364 35.727C508.361 35.743 508.358 35.759 508.356 35.775C508.353 35.791 508.35 35.8071 508.348 35.8231C508.345 35.8392 508.342 35.8553 508.34 35.8714C508.337 35.8875 508.334 35.9036 508.332 35.9197C508.329 35.9358 508.326 35.952 508.324 35.9681C508.321 35.9843 508.318 36.0004 508.316 36.0166C508.313 36.0328 508.31 36.049 508.307 36.0652C508.305 36.0814 508.302 36.0977 508.299 36.1139C508.297 36.1302 508.294 36.1464 508.291 36.1627C508.288 36.179 508.286 36.1953 508.283 36.2116C508.28 36.2279 508.278 36.2442 508.275 36.2606C508.272 36.2769 508.269 36.2932 508.267 36.3096C508.264 36.326 508.261 36.3424 508.258 36.3588C508.256 36.3752 508.253 36.3916 508.25 36.408C508.248 36.4245 508.245 36.4409 508.242 36.4574C508.239 36.4738 508.237 36.4903 508.234 36.5068C508.231 36.5233 508.228 36.5398 508.226 36.5563C508.223 36.5728 508.22 36.5894 508.217 36.6059C508.215 36.6225 508.212 36.6391 508.209 36.6556C508.206 36.6722 508.203 36.6888 508.201 36.7054C508.198 36.7221 508.195 36.7387 508.192 36.7553C508.19 36.772 508.187 36.7886 508.184 36.8053C508.181 36.822 508.179 36.8387 508.176 36.8554C508.173 36.8721 508.17 36.8888 508.167 36.9056C508.165 36.9223 508.162 36.9391 508.159 36.9558C508.156 36.9726 508.153 36.9894 508.151 37.0062C508.148 37.023 508.145 37.0398 508.142 37.0566C508.139 37.0735 508.137 37.0903 508.134 37.1072C508.131 37.124 508.128 37.1409 508.125 37.1578C508.123 37.1747 508.12 37.1916 508.117 37.2085C508.114 37.2255 508.111 37.2424 508.108 37.2593C508.106 37.2763 508.103 37.2933 508.1 37.3103C508.097 37.3272 508.094 37.3442 508.091 37.3613C508.089 37.3783 508.086 37.3953 508.083 37.4123C508.08 37.4294 508.077 37.4465 508.074 37.4635C508.072 37.4806 508.069 37.4977 508.066 37.5148C508.063 37.5319 508.06 37.549 508.057 37.5662C508.054 37.5833 508.052 37.6005 508.049 37.6176C508.046 37.6348 508.043 37.652 508.04 37.6692C508.037 37.6864 508.034 37.7036 508.031 37.7208C508.029 37.7381 508.026 37.7553 508.023 37.7726C508.02 37.7898 508.017 37.8071 508.014 37.8244C508.011 37.8417 508.008 37.859 508.006 37.8763C508.003 37.8937 508 37.911 507.997 37.9284C507.994 37.9457 507.991 37.9631 507.988 37.9805C507.985 37.9978 507.982 38.0152 507.98 38.0327C507.977 38.0501 507.974 38.0675 507.971 38.085C507.968 38.1024 507.965 38.1199 507.962 38.1373C507.959 38.1548 507.956 38.1723 507.953 38.1898C507.95 38.2073 507.947 38.2248 507.945 38.2424C507.942 38.2599 507.939 38.2775 507.936 38.295C507.933 38.3126 507.93 38.3302 507.927 38.3478C507.924 38.3654 507.921 38.383 507.918 38.4006C507.915 38.4183 507.912 38.4359 507.909 38.4536C507.906 38.4712 507.903 38.4889 507.901 38.5066C507.898 38.5243 507.895 38.542 507.892 38.5597C507.889 38.5775 507.886 38.5952 507.883 38.613C507.88 38.6307 507.877 38.6485 507.874 38.6663C507.871 38.684 507.868 38.7018 507.865 38.7197C507.862 38.7375 507.859 38.7553 507.856 38.7732C507.853 38.791 507.85 38.8089 507.847 38.8267C507.844 38.8446 507.841 38.8625 507.838 38.8804C507.835 38.8983 507.832 38.9162 507.829 38.9342C507.826 38.9521 507.823 38.9701 507.82 38.988C507.817 39.006 507.814 39.024 507.811 39.042L517.675 40.686C517.678 40.668 517.681 40.65 517.684 40.632C517.687 40.6141 517.69 40.5961 517.693 40.5782C517.696 40.5602 517.699 40.5423 517.702 40.5244C517.705 40.5065 517.708 40.4886 517.711 40.4707C517.714 40.4529 517.717 40.435 517.72 40.4171C517.723 40.3993 517.726 40.3815 517.729 40.3637C517.732 40.3458 517.735 40.328 517.738 40.3103C517.741 40.2925 517.744 40.2747 517.747 40.2569C517.75 40.2392 517.753 40.2215 517.756 40.2037C517.759 40.186 517.762 40.1683 517.764 40.1506C517.767 40.1329 517.77 40.1152 517.773 40.0976C517.776 40.0799 517.779 40.0623 517.782 40.0446C517.785 40.027 517.788 40.0094 517.791 39.9918C517.794 39.9742 517.797 39.9566 517.8 39.939C517.803 39.9215 517.806 39.9039 517.808 39.8864C517.811 39.8688 517.814 39.8513 517.817 39.8338C517.82 39.8163 517.823 39.7988 517.826 39.7813C517.829 39.7639 517.832 39.7464 517.835 39.7289C517.838 39.7115 517.841 39.6941 517.843 39.6766C517.846 39.6592 517.849 39.6418 517.852 39.6244C517.855 39.6071 517.858 39.5897 517.861 39.5723C517.864 39.555 517.867 39.5376 517.87 39.5203C517.872 39.503 517.875 39.4857 517.878 39.4684C517.881 39.4511 517.884 39.4338 517.887 39.4166C517.89 39.3993 517.893 39.3821 517.895 39.3648C517.898 39.3476 517.901 39.3304 517.904 39.3132C517.907 39.296 517.91 39.2788 517.913 39.2616C517.915 39.2445 517.918 39.2273 517.921 39.2102C517.924 39.193 517.927 39.1759 517.93 39.1588C517.933 39.1417 517.935 39.1246 517.938 39.1075C517.941 39.0904 517.944 39.0734 517.947 39.0563C517.95 39.0393 517.953 39.0223 517.955 39.0052C517.958 38.9882 517.961 38.9712 517.964 38.9542C517.967 38.9373 517.97 38.9203 517.972 38.9033C517.975 38.8864 517.978 38.8694 517.981 38.8525C517.984 38.8356 517.986 38.8187 517.989 38.8018C517.992 38.7849 517.995 38.768 517.998 38.7512C518.001 38.7343 518.003 38.7175 518.006 38.7006C518.009 38.6838 518.012 38.667 518.015 38.6502C518.017 38.6334 518.02 38.6166 518.023 38.5998C518.026 38.5831 518.029 38.5663 518.031 38.5496C518.034 38.5328 518.037 38.5161 518.04 38.4994C518.042 38.4827 518.045 38.466 518.048 38.4493C518.051 38.4326 518.054 38.416 518.056 38.3993C518.059 38.3827 518.062 38.366 518.065 38.3494C518.067 38.3328 518.07 38.3162 518.073 38.2996C518.076 38.283 518.078 38.2665 518.081 38.2499C518.084 38.2334 518.087 38.2168 518.09 38.2003C518.092 38.1838 518.095 38.1673 518.098 38.1508C518.101 38.1343 518.103 38.1178 518.106 38.1013C518.109 38.0849 518.111 38.0684 518.114 38.052C518.117 38.0356 518.12 38.0192 518.122 38.0028C518.125 37.9864 518.128 37.97 518.131 37.9536C518.133 37.9372 518.136 37.9209 518.139 37.9045C518.142 37.8882 518.144 37.8719 518.147 37.8556C518.15 37.8393 518.152 37.823 518.155 37.8067C518.158 37.7904 518.161 37.7742 518.163 37.7579C518.166 37.7417 518.169 37.7254 518.171 37.7092C518.174 37.693 518.177 37.6768 518.179 37.6606C518.182 37.6444 518.185 37.6283 518.188 37.6121C518.19 37.596 518.193 37.5798 518.196 37.5637C518.198 37.5476 518.201 37.5315 518.204 37.5154C518.206 37.4993 518.209 37.4832 518.212 37.4671C518.214 37.4511 518.217 37.435 518.22 37.419C518.222 37.403 518.225 37.3869 518.228 37.3709C518.23 37.3549 518.233 37.339 518.236 37.323C518.238 37.307 518.241 37.2911 518.244 37.2751C518.246 37.2592 518.249 37.2433 518.252 37.2274C518.254 37.2114 518.257 37.1956 518.26 37.1797C518.262 37.1638 518.265 37.1479 518.268 37.1321C518.27 37.1162 518.273 37.1004 518.275 37.0846C518.278 37.0688 518.281 37.053 518.283 37.0372C518.286 37.0214 518.289 37.0056 518.291 36.9899C518.294 36.9741 518.296 36.9584 518.299 36.9427C518.302 36.9269 518.304 36.9112 518.307 36.8955C518.31 36.8799 518.312 36.8642 518.315 36.8485C518.317 36.8328 518.32 36.8172 518.323 36.8016C518.325 36.7859 518.328 36.7703 518.33 36.7547C518.333 36.7391 518.336 36.7235 518.338 36.708C518.341 36.6924 518.343 36.6768 518.346 36.6613C518.349 36.6458 518.351 36.6302 518.354 36.6147C518.356 36.5992 518.359 36.5837 518.362 36.5683C518.364 36.5528 518.367 36.5373 518.369 36.5219C518.372 36.5064 518.374 36.491 518.377 36.4756C518.38 36.4602 518.382 36.4448 518.385 36.4294C518.387 36.414 518.39 36.3986 518.392 36.3833C518.395 36.3679 518.397 36.3526 518.4 36.3372C518.403 36.3219 518.405 36.3066 518.408 36.2913C518.41 36.276 518.413 36.2607 518.415 36.2455C518.418 36.2302 518.42 36.215 518.423 36.1997C518.425 36.1845 518.428 36.1693 518.431 36.1541C518.433 36.1389 518.436 36.1237 518.438 36.1085C518.441 36.0934 518.443 36.0782 518.446 36.0631C518.448 36.0479 518.451 36.0328 518.453 36.0177C518.456 36.0026 518.458 35.9875 518.461 35.9724C518.463 35.9574 518.466 35.9423 518.468 35.9272C518.471 35.9122 518.473 35.8972 518.476 35.8821C518.478 35.8671 518.481 35.8521 518.483 35.8371C518.486 35.8222 518.488 35.8072 518.491 35.7922C518.493 35.7773 518.496 35.7623 518.498 35.7474C518.501 35.7325 518.503 35.7176 518.506 35.7027C518.508 35.6878 518.511 35.6729 518.513 35.6581C518.516 35.6432 518.518 35.6283 518.521 35.6135C518.523 35.5987 518.526 35.5839 518.528 35.5691C518.531 35.5543 518.533 35.5395 518.535 35.5247C518.538 35.5099 518.54 35.4952 518.543 35.4804C518.545 35.4657 518.548 35.451 518.55 35.4363C518.553 35.4216 518.555 35.4069 518.558 35.3922C518.56 35.3775 518.562 35.3629 518.565 35.3482C518.567 35.3336 518.57 35.3189 518.572 35.3043C518.575 35.2897 518.577 35.2751 518.579 35.2605C518.582 35.2459 518.584 35.2314 518.587 35.2168C518.589 35.2022 518.592 35.1877 518.594 35.1732C518.596 35.1587 518.599 35.1442 518.601 35.1297C518.604 35.1152 518.606 35.1007 518.609 35.0862C518.611 35.0718 518.613 35.0573 518.616 35.0429C518.618 35.0285 518.621 35.014 518.623 34.9996C518.625 34.9852 518.628 34.9709 518.63 34.9565C518.633 34.9421 518.635 34.9278 518.637 34.9134C518.64 34.8991 518.642 34.8848 518.644 34.8704C518.647 34.8561 518.649 34.8418 518.652 34.8276C518.654 34.8133 518.656 34.799 518.659 34.7848C518.661 34.7705 518.664 34.7563 518.666 34.7421C518.668 34.7279 518.671 34.7137 518.673 34.6995C518.675 34.6853 518.678 34.6711 518.68 34.657C518.682 34.6428 518.685 34.6287 518.687 34.6146C518.689 34.6004 518.692 34.5863 518.694 34.5722C518.697 34.5581 518.699 34.5441 518.701 34.53C518.704 34.5159 518.706 34.5019 518.708 34.4878C518.711 34.4738 518.713 34.4598 518.715 34.4458C518.718 34.4318 518.72 34.4178 518.722 34.4038C518.725 34.3899 518.727 34.3759 518.729 34.362C518.732 34.348 518.734 34.3341 518.736 34.3202C518.739 34.3063 518.741 34.2924 518.743 34.2785C518.745 34.2646 518.748 34.2508 518.75 34.2369C518.752 34.2231 518.755 34.2093 518.757 34.1954C518.759 34.1816 518.762 34.1678 518.764 34.154C518.766 34.1403 518.768 34.1265 518.771 34.1127C518.773 34.099 518.775 34.0852 518.778 34.0715C518.78 34.0578 518.782 34.0441 518.784 34.0304C518.787 34.0167 518.789 34.003 518.791 33.9894C518.794 33.9757 518.796 33.962 518.798 33.9484C518.8 33.9348 518.803 33.9212 518.805 33.9076C518.807 33.894 518.809 33.8804 518.812 33.8668C518.814 33.8532 518.816 33.8397 518.819 33.8261C518.821 33.8126 518.823 33.7991 518.825 33.7856C518.828 33.7721 518.83 33.7586 518.832 33.7451C518.834 33.7316 518.837 33.7181 518.839 33.7047C518.841 33.6913 518.843 33.6778 518.845 33.6644C518.848 33.651 518.85 33.6376 518.852 33.6242C518.854 33.6108 518.857 33.5974 518.859 33.5841C518.861 33.5707 518.863 33.5574 518.866 33.5441C518.868 33.5307 518.87 33.5174 518.872 33.5041C518.874 33.4908 518.877 33.4776 518.879 33.4643C518.881 33.451 518.883 33.4378 518.885 33.4246C518.888 33.4113 518.89 33.3981 518.892 33.3849C518.894 33.3717 518.896 33.3585 518.899 33.3454C518.901 33.3322 518.903 33.319 518.905 33.3059C518.907 33.2928 518.91 33.2796 518.912 33.2665C518.914 33.2534 518.916 33.2403 518.918 33.2272C518.921 33.2142 518.923 33.2011 518.925 33.1881C518.927 33.175 518.929 33.162 518.931 33.149C518.934 33.1359 518.936 33.1229 518.938 33.11C518.94 33.097 518.942 33.084 518.944 33.071C518.947 33.0581 518.949 33.0451 518.951 33.0322C518.953 33.0193 518.955 33.0064 518.957 32.9935C518.959 32.9806 518.962 32.9677 518.964 32.9549C518.966 32.942 518.968 32.9292 518.97 32.9163C518.972 32.9035 518.974 32.8907 518.977 32.8779C518.979 32.8651 518.981 32.8523 518.983 32.8395C518.985 32.8267 518.987 32.814 518.989 32.8012C518.991 32.7885 518.994 32.7758 518.996 32.7631C518.998 32.7504 519 32.7377 519.002 32.725C519.004 32.7123 519.006 32.6997 519.008 32.687C519.01 32.6744 519.013 32.6617 519.015 32.6491C519.017 32.6365 519.019 32.6239 519.021 32.6113C519.023 32.5987 519.025 32.5861 519.027 32.5736C519.029 32.561 519.031 32.5485 519.034 32.536C519.036 32.5234 519.038 32.5109 519.04 32.4984C519.042 32.486 519.044 32.4735 519.046 32.461C519.048 32.4485 519.05 32.4361 519.052 32.4237C519.054 32.4112 519.056 32.3988 519.058 32.3864C519.061 32.374 519.063 32.3616 519.065 32.3493C519.067 32.3369 519.069 32.3245 519.071 32.3122C519.073 32.2999 519.075 32.2875 519.077 32.2752C519.079 32.2629 519.081 32.2506 519.083 32.2383C519.085 32.2261 519.087 32.2138 519.089 32.2016C519.091 32.1893 519.093 32.1771 519.095 32.1649C519.097 32.1526 519.099 32.1404 519.102 32.1282C519.104 32.1161 519.106 32.1039 519.108 32.0917C519.11 32.0796 519.112 32.0674 519.114 32.0553C519.116 32.0432 519.118 32.0311 519.12 32.019C519.122 32.0069 519.124 31.9948 519.126 31.9828C519.128 31.9707 519.13 31.9586 519.132 31.9466C519.134 31.9346 519.136 31.9226 519.138 31.9106C519.14 31.8986 519.142 31.8866 519.144 31.8746C519.146 31.8626 519.148 31.8507 519.15 31.8387C519.152 31.8268 519.154 31.8149 519.156 31.803C519.158 31.7911 519.16 31.7792 519.162 31.7673C519.164 31.7554 519.166 31.7435 519.168 31.7317C519.17 31.7198 519.172 31.708 519.174 31.6962C519.175 31.6844 519.177 31.6726 519.179 31.6608C519.181 31.649 519.183 31.6372 519.185 31.6255C519.187 31.6137 519.189 31.602 519.191 31.5903C519.193 31.5785 519.195 31.5668 519.197 31.5551C519.199 31.5434 519.201 31.5318 519.203 31.5201C519.205 31.5084 519.207 31.4968 519.209 31.4852C519.211 31.4735 519.213 31.4619 519.215 31.4503C519.216 31.4387 519.218 31.4271 519.22 31.4155C519.222 31.404 519.224 31.3924 519.226 31.3809C519.228 31.3693 519.23 31.3578 519.232 31.3463C519.234 31.3348 519.236 31.3233 519.238 31.3118C519.239 31.3003 519.241 31.2889 519.243 31.2774C519.245 31.266 519.247 31.2546 519.249 31.2431C519.251 31.2317 519.253 31.2203 519.255 31.2089C519.257 31.1975 519.259 31.1862 519.26 31.1748C519.262 31.1635 519.264 31.1521 519.266 31.1408C519.268 31.1295 519.27 31.1182 519.272 31.1069C519.274 31.0956 519.276 31.0843 519.277 31.073C519.279 31.0618 519.281 31.0505 519.283 31.0393C519.285 31.0281 519.287 31.0168 519.289 31.0056C519.29 30.9944 519.292 30.9833 519.294 30.9721C519.296 30.9609 519.298 30.9498 519.3 30.9386C519.302 30.9275 519.303 30.9163 519.305 30.9052C519.307 30.8941 519.309 30.883 519.311 30.872C519.313 30.8609 519.315 30.8498 519.316 30.8388C519.318 30.8277 519.32 30.8167 519.322 30.8057C519.324 30.7947 519.326 30.7837 519.327 30.7727C519.329 30.7617 519.331 30.7507 519.333 30.7398C519.335 30.7288 519.337 30.7179 519.338 30.7069C519.34 30.696 519.342 30.6851 519.344 30.6742C519.346 30.6633 519.347 30.6524 519.349 30.6416C519.351 30.6307 519.353 30.6199 519.355 30.609C519.357 30.5982 519.358 30.5874 519.36 30.5766C519.362 30.5658 519.364 30.555 519.366 30.5442C519.367 30.5334 519.369 30.5227 519.371 30.5119C519.373 30.5012 519.374 30.4905 519.376 30.4798C519.378 30.4691 519.38 30.4584 519.382 30.4477C519.383 30.437 519.385 30.4263 519.387 30.4157C519.389 30.4051 519.39 30.3944 519.392 30.3838C519.394 30.3732 519.396 30.3626 519.398 30.352C519.399 30.3414 519.401 30.3308 519.403 30.3203C519.405 30.3097 519.406 30.2992 519.408 30.2887C519.41 30.2781 519.412 30.2676 519.413 30.2571C519.415 30.2466 519.417 30.2362 519.419 30.2257C519.42 30.2152 519.422 30.2048 519.424 30.1944C519.426 30.1839 519.427 30.1735 519.429 30.1631C519.431 30.1527 519.433 30.1423 519.434 30.1319C519.436 30.1216 519.438 30.1112 519.439 30.1009C519.441 30.0905 519.443 30.0802 519.445 30.0699C519.446 30.0596 519.448 30.0493 519.45 30.039C519.451 30.0287 519.453 30.0185 519.455 30.0082C519.457 29.998 519.458 29.9877 519.46 29.9775C519.462 29.9673 519.463 29.9571 519.465 29.9469C519.467 29.9367 519.468 29.9266 519.47 29.9164C519.472 29.9063 519.474 29.8961 519.475 29.886C519.477 29.8759 519.479 29.8658 519.48 29.8557C519.482 29.8456 519.484 29.8355 519.485 29.8254C519.487 29.8154 519.489 29.8053 519.49 29.7953C519.492 29.7852 519.494 29.7752 519.495 29.7652C519.497 29.7552 519.499 29.7452 519.5 29.7353C519.502 29.7253 519.504 29.7153 519.505 29.7054C519.507 29.6955 519.509 29.6855 519.51 29.6756C519.512 29.6657 519.514 29.6558 519.515 29.6459C519.517 29.6361 519.519 29.6262 519.52 29.6164C519.522 29.6065 519.523 29.5967 519.525 29.5869C519.527 29.577 519.528 29.5672 519.53 29.5574C519.532 29.5477 519.533 29.5379 519.535 29.5281C519.536 29.5184 519.538 29.5086 519.54 29.4989C519.541 29.4892 519.543 29.4795 519.545 29.4698C519.546 29.4601 519.548 29.4504 519.549 29.4407C519.551 29.4311 519.553 29.4214 519.554 29.4118C519.556 29.4022 519.557 29.3926 519.559 29.3829C519.561 29.3733 519.562 29.3638 519.564 29.3542C519.565 29.3446 519.567 29.3351 519.569 29.3255C519.57 29.316 519.572 29.3065 519.573 29.2969C519.575 29.2874 519.577 29.2779 519.578 29.2685C519.58 29.259 519.581 29.2495 519.583 29.2401C519.584 29.2306 519.586 29.2212 519.588 29.2118C519.589 29.2024 519.591 29.193 519.592 29.1836C519.594 29.1742 519.595 29.1648 519.597 29.1555C519.599 29.1461 519.6 29.1368 519.602 29.1274C519.603 29.1181 519.605 29.1088 519.606 29.0995C519.608 29.0902 519.609 29.0809 519.611 29.0717C519.612 29.0624 519.614 29.0532 519.616 29.0439C519.617 29.0347 519.619 29.0255 519.62 29.0163C519.622 29.0071 519.623 28.9979 519.625 28.9887C519.626 28.9795 519.628 28.9704 519.629 28.9612C519.631 28.9521 519.632 28.943 519.634 28.9339C519.635 28.9248 519.637 28.9157 519.638 28.9066C519.64 28.8975 519.641 28.8884 519.643 28.8794C519.644 28.8703 519.646 28.8613 519.648 28.8523C519.649 28.8433 519.651 28.8343 519.652 28.8253C519.654 28.8163 519.655 28.8073 519.656 28.7984C519.658 28.7894 519.659 28.7805 519.661 28.7715C519.662 28.7626 519.664 28.7537 519.665 28.7448C519.667 28.7359 519.668 28.727 519.67 28.7182C519.671 28.7093 519.673 28.7005 519.674 28.6916C519.676 28.6828 519.677 28.674 519.679 28.6652C519.68 28.6564 519.682 28.6476 519.683 28.6388C519.685 28.63 519.686 28.6213 519.687 28.6126C519.689 28.6038 519.69 28.5951 519.692 28.5864C519.693 28.5777 519.695 28.569 519.696 28.5603C519.698 28.5516 519.699 28.543 519.701 28.5343C519.702 28.5257 519.703 28.517 519.705 28.5084C519.706 28.4998 519.708 28.4912 519.709 28.4826C519.711 28.474 519.712 28.4654 519.713 28.4569C519.715 28.4483 519.716 28.4398 519.718 28.4313C519.719 28.4227 519.721 28.4142 519.722 28.4057C519.723 28.3972 519.725 28.3888 519.726 28.3803C519.728 28.3718 519.729 28.3634 519.73 28.3549C519.732 28.3465 519.733 28.3381 519.735 28.3297C519.736 28.3213 519.737 28.3129 519.739 28.3045C519.74 28.2962 519.742 28.2878 519.743 28.2795C519.744 28.2711 519.746 28.2628 519.747 28.2545C519.749 28.2462 519.75 28.2379 519.751 28.2296C519.753 28.2213 519.754 28.2131 519.755 28.2048C519.757 28.1966 519.758 28.1883 519.76 28.1801C519.761 28.1719 519.762 28.1637 519.764 28.1555C519.765 28.1473 519.766 28.1391 519.768 28.131C519.769 28.1228 519.77 28.1147 519.772 28.1066C519.773 28.0984 519.775 28.0903 519.776 28.0822C519.777 28.0741 519.779 28.0661 519.78 28.058C519.781 28.0499 519.783 28.0419 519.784 28.0339C519.785 28.0258 519.787 28.0178 519.788 28.0098C519.789 28.0018 519.791 27.9938 519.792 27.9858C519.793 27.9779 519.795 27.9699 519.796 27.962C519.797 27.954 519.799 27.9461 519.8 27.9382C519.801 27.9303 519.802 27.9224 519.804 27.9145C519.805 27.9066 519.806 27.8988 519.808 27.8909C519.809 27.8831 519.81 27.8752 519.812 27.8674C519.813 27.8596 519.814 27.8518 519.816 27.844C519.817 27.8362 519.818 27.8284 519.819 27.8207C519.821 27.8129 519.822 27.8052 519.823 27.7975C519.825 27.7897 519.826 27.782 519.827 27.7743C519.828 27.7666 519.83 27.759 519.831 27.7513C519.832 27.7436 519.834 27.736 519.835 27.7284C519.836 27.7207 519.837 27.7131 519.839 27.7055C519.84 27.6979 519.841 27.6903 519.842 27.6827C519.844 27.6752 519.845 27.6676 519.846 27.6601C519.847 27.6525 519.849 27.645 519.85 27.6375C519.851 27.63 519.852 27.6225 519.854 27.615C519.855 27.6075 519.856 27.6001 519.857 27.5926C519.859 27.5852 519.86 27.5777 519.861 27.5703C519.862 27.5629 519.864 27.5555 519.865 27.5481C519.866 27.5407 519.867 27.5334 519.869 27.526C519.87 27.5186 519.871 27.5113 519.872 27.504C519.873 27.4966 519.875 27.4893 519.876 27.482C519.877 27.4747 519.878 27.4675 519.88 27.4602C519.881 27.4529 519.882 27.4457 519.883 27.4385C519.884 27.4312 519.886 27.424 519.887 27.4168C519.888 27.4096 519.889 27.4024 519.89 27.3952C519.892 27.3881 519.893 27.3809 519.894 27.3738C519.895 27.3666 519.896 27.3595 519.897 27.3524C519.899 27.3453 519.9 27.3382 519.901 27.3311C519.902 27.324 519.903 27.317 519.905 27.3099C519.906 27.3029 519.907 27.2958 519.908 27.2888C519.909 27.2818 519.91 27.2748 519.912 27.2678C519.913 27.2608 519.914 27.2538 519.915 27.2469C519.916 27.2399 519.917 27.233 519.919 27.2261C519.92 27.2191 519.921 27.2122 519.922 27.2053C519.923 27.1984 519.924 27.1916 519.925 27.1847C519.927 27.1778 519.928 27.171 519.929 27.1641C519.93 27.1573 519.931 27.1505 519.932 27.1437C519.933 27.1369 519.935 27.1301 519.936 27.1233C519.937 27.1166 519.938 27.1098 519.939 27.1031C519.94 27.0963 519.941 27.0896 519.942 27.0829C519.944 27.0762 519.945 27.0695 519.946 27.0628C519.947 27.0561 519.948 27.0495 519.949 27.0428C519.95 27.0362 519.951 27.0295 519.952 27.0229C519.954 27.0163 519.955 27.0097 519.956 27.0031C519.957 26.9965 519.958 26.9899 519.959 26.9834C519.96 26.9768 519.961 26.9703 519.962 26.9638C519.963 26.9572 519.964 26.9507 519.966 26.9442C519.967 26.9377 519.968 26.9313 519.969 26.9248C519.97 26.9183 519.971 26.9119 519.972 26.9054C519.973 26.899 519.974 26.8926 519.975 26.8862C519.976 26.8798 519.977 26.8734 519.978 26.867C519.979 26.8607 519.981 26.8543 519.982 26.848C519.983 26.8416 519.984 26.8353 519.985 26.829C519.986 26.8227 519.987 26.8164 519.988 26.8101C519.989 26.8038 519.99 26.7975 519.991 26.7913C519.992 26.785 519.993 26.7788 519.994 26.7726C519.995 26.7664 519.996 26.7602 519.997 26.754C519.998 26.7478 519.999 26.7416 520 26.7355C520.001 26.7293 520.002 26.7232 520.003 26.717C520.004 26.7109 520.005 26.7048 520.006 26.6987C520.007 26.6926 520.008 26.6865 520.009 26.6805C520.01 26.6744 520.011 26.6684 520.013 26.6623C520.014 26.6563 520.015 26.6503 520.016 26.6443C520.017 26.6383 520.018 26.6323 520.019 26.6263C520.019 26.6203 520.02 26.6144 520.021 26.6084C520.022 26.6025 520.023 26.5966 520.024 26.5907C520.025 26.5848 520.026 26.5789 520.027 26.573C520.028 26.5671 520.029 26.5612 520.03 26.5554C520.031 26.5495 520.032 26.5437 520.033 26.5379C520.034 26.5321 520.035 26.5263 520.036 26.5205C520.037 26.5147 520.038 26.5089 520.039 26.5032C520.04 26.4974 520.041 26.4917 520.042 26.4859C520.043 26.4802 520.044 26.4745 520.045 26.4688C520.046 26.4631 520.047 26.4574 520.048 26.4518C520.049 26.4461 520.049 26.4404 520.05 26.4348C520.051 26.4292 520.052 26.4236 520.053 26.418C520.054 26.4124 520.055 26.4068 520.056 26.4012C520.057 26.3956 520.058 26.3901 520.059 26.3845C520.06 26.379 520.061 26.3735 520.062 26.3679C520.062 26.3624 520.063 26.3569 520.064 26.3515C520.065 26.346 520.066 26.3405 520.067 26.3351C520.068 26.3296 520.069 26.3242 520.07 26.3188C520.071 26.3133 520.072 26.3079 520.072 26.3026C520.073 26.2972 520.074 26.2918 520.075 26.2864C520.076 26.2811 520.077 26.2757 520.078 26.2704C520.079 26.2651 520.08 26.2598 520.08 26.2545C520.081 26.2492 520.082 26.2439 520.083 26.2386C520.084 26.2334 520.085 26.2281 520.086 26.2229C520.087 26.2177 520.087 26.2124 520.088 26.2072C520.089 26.202 520.09 26.1968 520.091 26.1917C520.092 26.1865 520.093 26.1813 520.094 26.1762C520.094 26.1711 520.095 26.1659 520.096 26.1608C520.097 26.1557 520.098 26.1506 520.099 26.1455C520.099 26.1405 520.1 26.1354 520.101 26.1303C520.102 26.1253 520.103 26.1203 520.104 26.1152C520.105 26.1102 520.105 26.1052 520.106 26.1002C520.107 26.0952 520.108 26.0903 520.109 26.0853C520.109 26.0804 520.11 26.0754 520.111 26.0705C520.112 26.0656 520.113 26.0607 520.114 26.0558C520.114 26.0509 520.115 26.046 520.116 26.0411C520.117 26.0363 520.118 26.0314 520.118 26.0266C520.119 26.0217 520.12 26.0169 520.121 26.0121C520.122 26.0073 520.122 26.0025 520.123 25.9978C520.124 25.993 520.125 25.9882 520.126 25.9835C520.126 25.9787 520.127 25.974 520.128 25.9693C520.129 25.9646 520.13 25.9599 520.13 25.9552C520.131 25.9505 520.132 25.9459 520.133 25.9412C520.133 25.9366 520.134 25.9319 520.135 25.9273C520.136 25.9227 520.137 25.9181 520.137 25.9135C520.138 25.9089 520.139 25.9043 520.14 25.8998C520.14 25.8952 520.141 25.8907 520.142 25.8862C520.143 25.8816 520.143 25.8771 520.144 25.8726C520.145 25.8681 520.146 25.8637 520.146 25.8592C520.147 25.8547 520.148 25.8503 520.149 25.8458C520.149 25.8414 520.15 25.837 520.151 25.8326C520.152 25.8282 520.152 25.8238 520.153 25.8194C520.154 25.815 520.154 25.8107 520.155 25.8064C520.156 25.802 520.157 25.7977 520.157 25.7934C520.158 25.7891 520.159 25.7848 520.159 25.7805C520.16 25.7762 520.161 25.7719 520.162 25.7677C520.162 25.7634 520.163 25.7592 520.164 25.755C520.164 25.7508 520.165 25.7466 520.166 25.7424C520.167 25.7382 520.167 25.734 520.168 25.7299C520.169 25.7257 520.169 25.7216 520.17 25.7174C520.171 25.7133 520.171 25.7092 520.172 25.7051C520.173 25.701 520.173 25.6969 520.174 25.6929C520.175 25.6888 520.175 25.6847 520.176 25.6807C520.177 25.6767 520.177 25.6727 520.178 25.6687C520.179 25.6647 520.179 25.6607 520.18 25.6567C520.181 25.6527 520.181 25.6488 520.182 25.6448C520.183 25.6409 520.183 25.637 520.184 25.633C520.185 25.6291 520.185 25.6252 520.186 25.6214C520.187 25.6175 520.187 25.6136 520.188 25.6098C520.189 25.6059 520.189 25.6021 520.19 25.5983C520.19 25.5944 520.191 25.5906 520.192 25.5868C520.192 25.5831 520.193 25.5793 520.194 25.5755C520.194 25.5718 520.195 25.568 520.196 25.5643C520.196 25.5606 520.197 25.5569 520.197 25.5532C520.198 25.5495 520.199 25.5458 520.199 25.5421C520.2 25.5385 520.2 25.5348 520.201 25.5312C520.202 25.5275 520.202 25.5239 520.203 25.5203C520.203 25.5167 520.204 25.5131 520.205 25.5096C520.205 25.506 520.206 25.5024 520.206 25.4989C520.207 25.4953 520.208 25.4918 520.208 25.4883C520.209 25.4848 520.209 25.4813 520.21 25.4778C520.21 25.4743 520.211 25.4709 520.212 25.4674C520.212 25.464 520.213 25.4605 520.213 25.4571C520.214 25.4537 520.215 25.4503 520.215 25.4469C520.216 25.4435 520.216 25.4401 520.217 25.4368C520.217 25.4334 520.218 25.4301 520.218 25.4268C520.219 25.4234 520.22 25.4201 520.22 25.4168C520.221 25.4135 520.221 25.4103 520.222 25.407C520.222 25.4037 520.223 25.4005 520.223 25.3972C520.224 25.394 520.224 25.3908 520.225 25.3876C520.225 25.3844 520.226 25.3812 520.227 25.378C520.227 25.3748 520.228 25.3717 520.228 25.3685C520.229 25.3654 520.229 25.3623 520.23 25.3592C520.23 25.3561 520.231 25.353 520.231 25.3499C520.232 25.3468 520.232 25.3437 520.233 25.3407C520.233 25.3376 520.234 25.3346 520.234 25.3316C520.235 25.3286 520.235 25.3256 520.236 25.3226C520.236 25.3196 520.237 25.3166 520.237 25.3136C520.238 25.3107 520.238 25.3077 520.239 25.3048C520.239 25.3019 520.24 25.299 520.24 25.2961C520.241 25.2932 520.241 25.2903 520.242 25.2874C520.242 25.2846 520.243 25.2817 520.243 25.2789C520.244 25.2761 520.244 25.2732 520.244 25.2704C520.245 25.2676 520.245 25.2648 520.246 25.2621C520.246 25.2593 520.247 25.2565 520.247 25.2538C520.248 25.2511 520.248 25.2483 520.249 25.2456C520.249 25.2429 520.25 25.2402 520.25 25.2375C520.25 25.2349 520.251 25.2322 520.251 25.2295C520.252 25.2269 520.252 25.2243 520.253 25.2216C520.253 25.219 520.253 25.2164 520.254 25.2138C520.254 25.2112 520.255 25.2087 520.255 25.2061C520.256 25.2035 520.256 25.201 520.256 25.1985C520.257 25.1959 520.257 25.1934 520.258 25.1909C520.258 25.1884 520.259 25.186 520.259 25.1835C520.259 25.181 520.26 25.1786 520.26 25.1761C520.261 25.1737 520.261 25.1713 520.261 25.1689C520.262 25.1665 520.262 25.1641 520.263 25.1617C520.263 25.1594 520.263 25.157 520.264 25.1547C520.264 25.1523 520.265 25.15 520.265 25.1477C520.265 25.1454 520.266 25.1431 520.266 25.1408C520.266 25.1385 520.267 25.1362 520.267 25.134L510.403 23.49ZM507.813 39.0345C506.085 49.3049 505.028 55.5974 504.643 57.906L514.507 59.55C514.89 57.2506 515.946 50.9671 517.674 40.6935L507.813 39.0345ZM504.638 57.9366L501.614 76.8006L511.488 78.3834L514.512 59.5194L504.638 57.9366ZM501.606 76.8519C499.492 90.9808 497.807 102.821 496.554 112.365L506.469 113.667C507.711 104.203 509.387 92.4272 511.496 78.3321L501.606 76.8519ZM501.749 118.01C503.65 117.92 506.295 117.872 509.719 117.872V107.872C506.231 107.872 503.405 107.92 501.273 108.022L501.749 118.01ZM509.719 117.872C512.071 117.872 513.864 118.03 515.173 118.284C516.536 118.549 517.045 118.857 517.121 118.913L523.053 110.863C521.305 109.575 519.175 108.875 517.082 108.468C514.934 108.05 512.455 107.872 509.719 107.872V117.872ZM517.121 118.913C517.418 119.132 517.823 119.502 517.823 120.936H527.823C527.823 116.994 526.404 113.332 523.053 110.863L517.121 118.913ZM517.823 120.936C517.823 121.87 517.533 122.629 516.545 123.476L523.053 131.068C526.097 128.459 527.823 124.994 527.823 120.936H517.823ZM516.454 123.556C515.748 124.191 514.374 124.864 511.591 124.864V134.864C515.912 134.864 520.01 133.809 523.144 130.988L516.454 123.556ZM511.591 124.864C509.29 124.864 505.576 124.771 500.4 124.579L500.03 134.573C505.222 134.765 509.093 134.864 511.591 134.864V124.864ZM500.415 124.58C495.635 124.389 492.365 124.288 490.711 124.288V134.288C492.13 134.288 495.196 134.379 500.015 134.572L500.415 124.58ZM490.711 124.288C484.378 124.288 477.507 124.841 470.114 125.925L471.565 135.819C478.571 134.791 484.949 134.288 490.711 134.288V124.288ZM470.09 125.928C466.925 126.408 465.001 126.592 464.071 126.592V136.592C465.83 136.592 468.418 136.296 471.588 135.816L470.09 125.928ZM464.071 126.592C462.921 126.592 462.294 126.301 461.867 125.96L455.62 133.768C458.073 135.731 460.997 136.592 464.071 136.592V126.592ZM461.867 125.96C461.783 125.893 461.752 125.847 461.719 125.77C461.675 125.668 461.583 125.389 461.583 124.824H451.583C451.583 128.218 452.756 131.477 455.62 133.768L461.867 125.96ZM461.583 124.824C461.583 123.19 462.146 122.06 463.841 121L458.541 112.52C454.093 115.3 451.583 119.546 451.583 124.824H461.583ZM463.841 121C465.836 119.753 469.128 118.823 474.237 118.735L474.065 108.737C468.038 108.841 462.691 109.927 458.541 112.52L463.841 121ZM474.258 118.735L481.026 118.591L480.813 108.593L474.045 108.737L474.258 118.735ZM485.873 114.268L486.305 111.1L476.397 109.748L475.965 112.916L485.873 114.268ZM486.296 111.166C488.6 95.8057 490.275 84.9937 491.323 78.702L481.459 77.058C480.396 83.4383 478.711 94.3223 476.407 109.682L486.296 111.166ZM491.322 78.7081L494.49 59.8441L484.628 58.1879L481.46 77.0519L491.322 78.7081ZM494.487 59.8655C496.419 48.658 498.157 37.1177 499.701 25.245L489.785 23.955C488.257 35.6983 486.54 47.1019 484.632 58.1665L494.487 59.8655ZM494.684 19.6004L482.588 19.7443L482.707 29.7436L494.803 29.5996L494.684 19.6004ZM482.647 19.744C481.147 19.744 480.067 19.6269 479.33 19.4648C478.566 19.2967 478.416 19.134 478.536 19.2284L472.358 27.0916C475.119 29.2607 479.029 29.744 482.647 29.744V19.744ZM478.839 19.486C478.808 19.4573 478.575 19.3124 478.575 18.408H468.575C468.575 21.5356 469.591 24.5587 472.056 26.834L478.839 19.486ZM478.575 18.408C478.575 16.5181 479.161 15.5859 480.09 14.8938C481.301 13.9917 483.679 13.107 487.942 12.8895L487.432 2.90249C482.287 3.16501 477.609 4.2723 474.116 6.8742C470.341 9.68612 468.575 13.7699 468.575 18.408H478.575ZM487.904 12.8913C492.225 12.7034 497.524 12.608 503.815 12.608V2.60799C497.435 2.60799 491.982 2.70455 487.47 2.90072L487.904 12.8913ZM503.788 12.6079L530.14 12.7519L530.195 2.75206L503.843 2.60807L503.788 12.6079ZM556.104 127.416L552.463 130.843L552.515 130.898L552.569 130.952L556.104 127.416ZM554.664 107.544L559.618 108.22L559.618 108.22L554.664 107.544ZM557.688 88.392L562.619 89.223L562.62 89.214L557.688 88.392ZM559.992 74.424L564.926 75.2366L564.927 75.2274L559.992 74.424ZM563.592 48.504L558.631 47.8838L558.628 47.9033L558.626 47.9229L563.592 48.504ZM551.208 28.632L554.083 32.723L554.094 32.7155L554.104 32.7079L551.208 28.632ZM539.688 40.728L535.672 37.7502L535.667 37.7561L535.663 37.762L539.688 40.728ZM531.624 41.592L527.555 44.4982L527.675 44.6651L527.807 44.8217L531.624 41.592ZM531.048 32.52L535.691 34.377L535.711 34.3265L535.73 34.2756L531.048 32.52ZM534.216 27.048L530.18 24.0964L530.172 24.1071L534.216 27.048ZM549.912 12.216L552.485 16.5035L552.511 16.4878L552.537 16.4718L549.912 12.216ZM579.864 11.784L575.949 14.8934L575.976 14.9282L576.004 14.9625L579.864 11.784ZM581.592 50.232L576.644 49.5123L586.329 51.8323L581.592 50.232ZM599.88 17.976L603.392 21.5346L603.404 21.5231L603.416 21.5115L599.88 17.976ZM643.656 13.656L639.888 16.9428L639.926 16.9855L639.964 17.0273L643.656 13.656ZM647.832 46.92L652.722 47.963L652.726 47.9467L652.729 47.9305L647.832 46.92ZM639.048 88.104L634.158 87.061L634.151 87.0922L634.145 87.1234L639.048 88.104ZM640.344 109.56L636.636 112.915L636.679 112.962L636.723 113.008L640.344 109.56ZM657.48 109.416L654.647 105.296L654.617 105.317L654.586 105.338L657.48 109.416ZM668.28 98.904L664.484 95.65L664.471 95.6655L664.458 95.681L668.28 98.904ZM675.048 98.616L670.729 101.135L670.805 101.265L670.888 101.39L675.048 98.616ZM673.464 112.296L669.609 109.112L669.608 109.113L673.464 112.296ZM658.632 125.544L661.104 129.89L661.104 129.89L658.632 125.544ZM624.072 122.52L620.431 125.947L620.448 125.965L620.465 125.983L624.072 122.52ZM617.88 92.568L612.938 91.8077L612.929 91.8698L612.921 91.9322L617.88 92.568ZM620.616 78.312L615.731 77.2443L615.73 77.2532L620.616 78.312ZM626.376 51.96L621.495 50.8754L621.493 50.8838L621.491 50.8923L626.376 51.96ZM628.536 41.16L633.481 41.9017L633.483 41.8844L633.486 41.8671L628.536 41.16ZM601.752 34.392L605.4 37.8117L605.4 37.8117L601.752 34.392ZM585.768 64.2L590.474 65.8901L590.478 65.8796L585.768 64.2ZM574.248 116.616L579.202 117.296L579.204 117.28L579.206 117.264L574.248 116.616ZM571.224 126.84L567.128 123.973L567.079 124.043L567.032 124.115L571.224 126.84ZM563.736 124.72C560.707 124.72 559.792 124.033 559.64 123.88L552.569 130.952C555.488 133.871 559.661 134.72 563.736 134.72V124.72ZM559.745 123.989C559.748 123.992 559.681 123.922 559.577 123.713C559.473 123.502 559.344 123.174 559.222 122.693C558.973 121.711 558.8 120.294 558.8 118.344H548.8C548.8 122.962 549.525 127.721 552.463 130.843L559.745 123.989ZM558.8 118.344C558.8 115.667 559.061 112.307 559.618 108.22L549.71 106.868C549.115 111.229 548.8 115.069 548.8 118.344H558.8ZM559.618 108.22C560.183 104.077 561.18 97.7565 562.619 89.223L552.758 87.561C551.316 96.1155 550.297 102.563 549.71 106.868L559.618 108.22ZM562.62 89.214C562.813 88.0559 563.582 83.3932 564.926 75.2366L555.059 73.6114C553.714 81.7748 552.947 86.4241 552.756 87.57L562.62 89.214ZM564.927 75.2274C566.284 66.8916 567.494 58.1772 568.558 49.0851L558.626 47.9229C557.578 56.8788 556.388 65.4444 555.057 73.6206L564.927 75.2274ZM568.554 49.1242C569.519 41.4008 570.032 35.3878 570.032 31.224H560.032C560.032 34.7402 559.585 40.2472 558.631 47.8838L568.554 49.1242ZM570.032 31.224C570.032 28.6004 569.577 25.7271 567.876 23.4072C565.963 20.798 563.127 19.744 560.28 19.744V29.744C560.508 29.744 560.47 29.7824 560.29 29.7008C560.083 29.6066 559.909 29.453 559.812 29.3208C559.737 29.2183 559.799 29.2532 559.878 29.5763C559.958 29.9031 560.032 30.4333 560.032 31.224H570.032ZM560.28 19.744C556.272 19.744 552.177 21.81 548.312 24.5561L554.104 32.7079C557.535 30.27 559.488 29.744 560.28 29.744V19.744ZM548.333 24.541C544.162 27.4721 539.952 31.9768 535.672 37.7502L543.705 43.7058C547.68 38.3432 551.15 34.7839 554.083 32.723L548.333 24.541ZM535.663 37.762C535.265 38.3022 535.008 38.4823 534.951 38.517C534.929 38.5304 534.953 38.5129 535.018 38.4938C535.086 38.4741 535.159 38.464 535.224 38.464V48.464C539.007 48.464 541.819 46.2647 543.713 43.694L535.663 37.762ZM535.224 38.464C535.279 38.464 535.352 38.4708 535.434 38.4909C535.516 38.511 535.581 38.538 535.623 38.5599C535.707 38.6036 535.634 38.5909 535.441 38.3623L527.807 44.8217C529.588 46.9263 532.093 48.464 535.224 48.464V38.464ZM535.693 38.6858C535.331 38.1788 535.184 37.7045 535.184 37.128H525.184C525.184 39.8155 525.998 42.3171 527.555 44.4982L535.693 38.6858ZM535.184 37.128C535.184 36.0984 535.363 35.1958 535.691 34.377L526.406 30.663C525.581 32.7242 525.184 34.8936 525.184 37.128H535.184ZM535.73 34.2756C536.083 33.3347 536.852 31.9243 538.26 29.9889L530.172 24.1071C528.508 26.3957 527.166 28.6333 526.366 30.7644L535.73 34.2756ZM538.252 29.9996C542.634 24.0075 547.393 19.5585 552.485 16.5035L547.34 7.92853C540.911 11.7854 535.206 17.2245 530.18 24.0964L538.252 29.9996ZM552.537 16.4718C557.564 13.3719 562.711 11.888 568.056 11.888V1.88799C560.73 1.88799 553.781 3.95612 547.288 7.96014L552.537 16.4718ZM568.056 11.888C572.256 11.888 574.551 13.1334 575.949 14.8934L583.78 8.67459C579.993 3.90657 574.417 1.88799 568.056 1.88799V11.888ZM576.004 14.9625C577.675 16.9914 578.896 20.4258 578.896 26.04H588.896C588.896 19.1742 587.429 13.1046 583.724 8.60546L576.004 14.9625ZM578.896 26.04C578.896 31.2391 578.171 39.0167 576.644 49.5123L586.54 50.9517C588.085 40.3273 588.896 31.9769 588.896 26.04H578.896ZM586.329 51.8323C590.982 38.0587 596.747 28.0938 603.392 21.5346L596.368 14.4174C588.229 22.4502 581.802 33.9893 576.855 48.6317L586.329 51.8323ZM603.416 21.5115C609.919 15.0081 617.354 11.888 625.944 11.888V1.88799C614.566 1.88799 604.625 6.15992 596.345 14.4405L603.416 21.5115ZM625.944 11.888C632.854 11.888 637.179 13.8367 639.888 16.9428L647.424 10.3691C642.262 4.45126 634.778 1.88799 625.944 1.88799V11.888ZM639.964 17.0273C642.957 20.3057 644.704 24.9439 644.704 31.512H654.704C654.704 23.1041 652.419 15.8383 647.349 10.2846L639.964 17.0273ZM644.704 31.512C644.704 35.2802 644.143 40.0565 642.935 45.9095L652.729 47.9305C654.017 41.6875 654.704 36.1918 654.704 31.512H644.704ZM642.942 45.877L634.158 87.061L643.938 89.147L652.722 47.963L642.942 45.877ZM634.145 87.1234C633.145 92.1246 632.608 96.5983 632.608 100.488H642.608C642.608 97.4657 643.031 93.6834 643.951 89.0846L634.145 87.1234ZM632.608 100.488C632.608 105.174 633.657 109.622 636.636 112.915L644.052 106.205C643.383 105.466 642.608 103.866 642.608 100.488H632.608ZM636.723 113.008C639.779 116.216 643.841 117.584 648.264 117.584V107.584C645.968 107.584 644.75 106.936 643.965 106.112L636.723 113.008ZM648.264 117.584C652.621 117.584 656.685 116.111 660.374 113.494L654.586 105.338C652.323 106.945 650.243 107.584 648.264 107.584V117.584ZM660.313 113.536C663.925 111.053 667.861 107.158 672.103 102.127L664.458 95.681C660.443 100.442 657.18 103.555 654.647 105.296L660.313 113.536ZM672.076 102.158C672.321 101.872 672.446 101.816 672.418 101.831C672.403 101.839 672.364 101.856 672.308 101.87C672.251 101.884 672.201 101.888 672.168 101.888V91.888C668.94 91.888 666.349 93.4746 664.484 95.65L672.076 102.158ZM672.168 101.888C671.993 101.888 671.635 101.838 671.252 101.607C670.884 101.387 670.736 101.147 670.729 101.135L679.367 96.0967C677.874 93.5372 675.339 91.888 672.168 91.888V101.888ZM670.888 101.39C670.912 101.425 671.2 101.912 671.2 103.368H681.2C681.2 100.792 680.721 98.111 679.208 95.8425L670.888 101.39ZM671.2 103.368C671.2 106.311 670.492 108.044 669.609 109.112L677.319 115.48C680.085 112.132 681.2 107.913 681.2 103.368H671.2ZM669.608 109.113C664.862 114.863 660.365 118.807 656.161 121.198L661.104 129.89C666.691 126.713 672.082 121.825 677.32 115.479L669.608 109.113ZM656.161 121.198C651.981 123.574 647.692 124.72 643.224 124.72V134.72C649.509 134.72 655.492 133.082 661.104 129.89L656.161 121.198ZM643.224 124.72C636.096 124.72 631.138 122.66 627.679 119.057L620.465 125.983C626.222 131.98 634.032 134.72 643.224 134.72V124.72ZM627.713 119.093C624.157 115.315 622.16 110.11 622.16 102.936H612.16C612.16 112.082 614.771 119.933 620.431 125.947L627.713 119.093ZM622.16 102.936C622.16 100.016 622.382 96.7755 622.84 93.2038L612.921 91.9322C612.419 95.8485 612.16 99.5198 612.16 102.936H622.16ZM622.822 93.3283C623.377 89.7231 624.266 85.0796 625.503 79.3708L615.73 77.2532C614.47 83.0644 613.536 87.9249 612.938 91.8077L622.822 93.3283ZM625.501 79.3797L631.261 53.0277L621.491 50.8923L615.731 77.2443L625.501 79.3797ZM631.257 53.0446C631.452 52.168 631.79 50.6217 632.27 48.4141L622.498 46.2898C622.018 48.4983 621.684 50.024 621.495 50.8754L631.257 53.0446ZM632.27 48.4141C632.769 46.1167 633.174 43.9448 633.481 41.9017L623.591 40.4183C623.322 42.2152 622.959 44.1713 622.498 46.2898L632.27 48.4141ZM633.486 41.8671C633.805 39.6309 633.968 37.4264 633.968 35.256H623.968C623.968 36.9256 623.843 38.6571 623.586 40.4529L633.486 41.8671ZM633.968 35.256C633.968 31.2052 632.801 27.4234 630.006 24.4733L622.746 31.3507C623.408 32.0486 623.968 33.1628 623.968 35.256H633.968ZM630.006 24.4733C627.101 21.4065 623.193 20.176 619.032 20.176V30.176C621.208 30.176 622.196 30.7695 622.746 31.3507L630.006 24.4733ZM619.032 20.176C611.356 20.176 604.369 24.2899 598.104 30.9723L605.4 37.8117C610.655 32.2061 615.188 30.176 619.032 30.176V20.176ZM598.104 30.9723C591.65 37.8567 586.041 48.5501 581.059 62.5204L590.478 65.8796C595.287 52.3939 600.334 43.2153 605.4 37.8117L598.104 30.9723ZM581.062 62.5099C576.002 76.599 572.101 94.4541 569.29 115.968L579.206 117.264C581.964 96.1539 585.742 79.065 590.474 65.8901L581.062 62.5099ZM569.295 115.936C568.636 120.733 567.739 123.1 567.128 123.973L575.32 129.707C577.397 126.74 578.516 122.291 579.202 117.296L569.295 115.936ZM567.032 124.115C567.032 124.115 567.032 124.115 567.033 124.114C567.034 124.113 567.034 124.112 567.034 124.113C567.033 124.113 567.026 124.121 567.006 124.137C566.966 124.167 566.854 124.244 566.621 124.333C566.125 124.524 565.222 124.72 563.736 124.72V134.72C568.071 134.72 572.774 133.63 575.416 129.565L567.032 124.115ZM788.922 99.048L784.519 101.419L784.631 101.626L784.762 101.821L788.922 99.048ZM789.066 108.696L793.468 111.067L793.468 111.066L789.066 108.696ZM785.898 112.008L788.655 116.179L788.663 116.174L788.671 116.168L785.898 112.008ZM758.826 130.44L755.986 126.324L754.293 127.493L753.912 129.514L758.826 130.44ZM744.282 177.384L748.716 179.694L748.716 179.694L744.282 177.384ZM709.722 189.912L713.257 186.376L713.229 186.348L713.201 186.321L709.722 189.912ZM719.37 148.44L715.691 145.053L715.677 145.069L715.662 145.085L719.37 148.44ZM742.842 127.704L745.896 131.663L747.47 130.448L747.781 128.484L742.842 127.704ZM743.274 124.968L748.213 125.748L749.609 116.903L741.347 120.354L743.274 124.968ZM692.586 123.528L690.287 127.968L690.308 127.979L690.329 127.99L692.586 123.528ZM673.578 105.672L669.267 108.205L673.578 105.672ZM674.874 41.304L679.354 43.5242L679.358 43.5164L679.362 43.5085L674.874 41.304ZM697.05 15.96L699.723 20.1854L699.734 20.1783L697.05 15.96ZM754.074 14.808L750.633 18.4361L750.665 18.4665L750.698 18.4964L754.074 14.808ZM759.402 49.224L755.135 46.6167L755.125 46.6341L755.114 46.6515L759.402 49.224ZM744.282 52.392L741.129 56.2726L741.186 56.319L741.245 56.3638L744.282 52.392ZM742.554 42.312L737.665 41.2643L737.641 41.3767L737.622 41.49L742.554 42.312ZM739.674 26.616L736.288 30.2957L736.324 30.3287L736.361 30.361L739.674 26.616ZM707.85 29.352L705.076 25.1917L705.061 25.202L705.046 25.2124L707.85 29.352ZM693.45 47.496L697.996 49.5774L698.001 49.5671L698.005 49.5568L693.45 47.496ZM697.338 103.08L693.775 106.588L693.802 106.616L693.829 106.642L697.338 103.08ZM745.434 107.976L747.344 112.597L750.065 111.472L750.401 108.546L745.434 107.976ZM747.45 90.408L752.417 90.978L753.056 85.408H747.45V90.408ZM726.57 88.536L723.158 92.1913L723.225 92.2541L723.295 92.3144L726.57 88.536ZM726.57 75.72L730.217 79.1397L730.217 79.1397L726.57 75.72ZM764.442 75.576L760.786 78.9876L760.904 79.1136L761.03 79.2313L764.442 75.576ZM766.17 81.48L761.2 80.9278L761.196 80.9705L761.192 81.0133L766.17 81.48ZM763.29 102.36L758.345 101.616L758.343 101.63L758.341 101.644L763.29 102.36ZM761.706 113.304L756.757 112.588L755.024 124.566L764.706 117.304L761.706 113.304ZM782.73 98.328L780.109 94.0697L780.032 94.1173L779.956 94.1677L782.73 98.328ZM731.466 172.056L727.04 169.73L727.04 169.73L731.466 172.056ZM739.818 144.696L744.715 145.705L747.662 131.408L736.568 140.896L739.818 144.696ZM723.978 161.544L719.793 158.808L719.763 158.854L719.733 158.901L723.978 161.544ZM786.042 102.176C785.789 102.176 785.377 102.099 784.973 101.836C784.601 101.595 784.488 101.359 784.519 101.419L793.324 96.6775C791.924 94.0776 789.414 92.176 786.042 92.176V102.176ZM784.762 101.821C784.833 101.928 785.074 102.367 785.074 103.512H795.074C795.074 101.009 794.547 98.4716 793.082 96.2745L784.762 101.821ZM785.074 103.512C785.074 105.311 784.784 106.102 784.663 106.326L793.468 111.066C794.692 108.794 795.074 106.129 795.074 103.512H785.074ZM784.663 106.325C784.456 106.71 784.032 107.243 783.124 107.848L788.671 116.168C790.644 114.853 792.331 113.178 793.468 111.067L784.663 106.325ZM783.141 107.837C777.432 111.61 768.373 117.779 755.986 126.324L761.665 134.556C774.046 126.013 783.035 119.894 788.655 116.179L783.141 107.837ZM753.912 129.514C750.214 149.145 745.482 164.26 739.848 175.074L748.716 179.694C754.986 167.66 759.95 151.479 763.739 131.366L753.912 129.514ZM739.848 175.074C734.353 185.619 728.194 189.52 721.674 189.52V199.52C733.393 199.52 742.306 191.997 748.716 179.694L739.848 175.074ZM721.674 189.52C717.92 189.52 715.269 188.388 713.257 186.376L706.186 193.448C710.318 197.58 715.635 199.52 721.674 199.52V189.52ZM713.201 186.321C711.244 184.426 710.114 181.86 710.114 178.104H700.114C700.114 184.14 702.055 189.446 706.243 193.503L713.201 186.321ZM710.114 178.104C710.114 174.357 710.947 170.477 712.719 166.428L703.557 162.42C701.296 167.587 700.114 172.827 700.114 178.104H710.114ZM712.719 166.428C714.426 162.525 717.772 157.659 723.077 151.795L715.662 145.085C710.024 151.317 705.881 157.107 703.557 162.42L712.719 166.428ZM723.048 151.827C728.351 146.067 735.932 139.349 745.896 131.663L739.788 123.745C729.591 131.611 721.525 138.717 715.691 145.053L723.048 151.827ZM747.781 128.484L748.213 125.748L738.335 124.188L737.903 126.924L747.781 128.484ZM741.347 120.354C734.296 123.3 727.509 124.72 720.954 124.72V134.72C728.99 134.72 737.084 132.972 745.201 129.582L741.347 120.354ZM720.954 124.72C710.849 124.72 702.19 122.783 694.843 119.066L690.329 127.99C699.301 132.529 709.555 134.72 720.954 134.72V124.72ZM694.884 119.088C687.534 115.283 681.908 109.98 677.889 103.139L669.267 108.205C674.272 116.724 681.318 123.325 690.287 127.968L694.884 119.088ZM677.889 103.139C673.889 96.3312 671.81 88.3025 671.81 78.888H661.81C661.81 89.8255 664.242 99.6528 669.267 108.205L677.889 103.139ZM671.81 78.888C671.81 65.3171 674.374 53.5719 679.354 43.5242L670.394 39.0838C664.621 50.7321 661.81 64.0429 661.81 78.888H671.81ZM679.362 43.5085C684.371 33.3111 691.168 25.5977 699.723 20.1854L694.377 11.7346C684.115 18.2263 676.129 27.4089 670.386 39.0995L679.362 43.5085ZM699.734 20.1783C708.403 14.6617 718.073 11.888 728.874 11.888V1.88799C716.251 1.88799 704.704 5.16226 694.365 11.7417L699.734 20.1783ZM728.874 11.888C739.413 11.888 746.347 14.3719 750.633 18.4361L757.514 11.1799C750.664 4.68412 740.798 1.88799 728.874 1.88799V11.888ZM750.698 18.4964C755.192 22.6094 757.57 28.1123 757.57 35.544H767.57C767.57 25.6957 764.284 17.3746 757.45 11.1196L750.698 18.4964ZM757.57 35.544C757.57 40.6382 756.613 44.1988 755.135 46.6167L763.668 51.8312C766.415 47.3372 767.57 41.7778 767.57 35.544H757.57ZM755.114 46.6515C753.979 48.5433 752.658 49.264 750.618 49.264V59.264C756.258 59.264 760.792 56.6247 763.689 51.7965L755.114 46.6515ZM750.618 49.264C748.832 49.264 747.873 48.8437 747.319 48.4202L741.245 56.3638C743.955 58.4363 747.219 59.264 750.618 59.264V49.264ZM747.435 48.5114C747.212 48.3307 746.978 48.1077 746.978 47.208H736.978C736.978 50.7243 738.279 53.9573 741.129 56.2726L747.435 48.5114ZM746.978 47.208C746.978 46.7062 747.101 45.4417 747.486 43.134L737.622 41.49C737.238 43.7903 736.978 45.7898 736.978 47.208H746.978ZM747.443 43.3596C748.044 40.5516 748.418 38.0367 748.418 35.976H738.418C738.418 36.9873 738.215 38.6964 737.665 41.2643L747.443 43.3596ZM748.418 35.976C748.418 30.8391 746.778 26.2254 742.987 22.871L736.361 30.361C737.561 31.4226 738.418 33.0489 738.418 35.976H748.418ZM743.059 22.9363C739.249 19.4307 733.573 18.304 727.434 18.304V28.304C732.814 28.304 735.299 29.3853 736.288 30.2957L743.059 22.9363ZM727.434 18.304C719.4 18.304 711.913 20.6338 705.076 25.1917L710.623 33.5122C715.882 30.0062 721.451 28.304 727.434 28.304V18.304ZM705.046 25.2124C698.17 29.8701 692.835 36.724 688.894 45.4352L698.005 49.5568C701.361 42.14 705.626 36.8979 710.654 33.4916L705.046 25.2124ZM688.904 45.4146C684.885 54.1924 682.978 64.5406 682.978 76.296H692.978C692.978 65.5874 694.719 56.7356 697.996 49.5774L688.904 45.4146ZM682.978 76.296C682.978 88.7251 686.365 99.0641 693.775 106.588L700.9 99.5716C695.83 94.4239 692.978 86.9069 692.978 76.296H682.978ZM693.829 106.642C701.383 114.081 711.938 117.44 724.698 117.44V107.44C713.649 107.44 705.965 104.559 700.846 99.5176L693.829 106.642ZM724.698 117.44C732.082 117.44 739.643 115.78 747.344 112.597L743.524 103.355C736.824 106.124 730.562 107.44 724.698 107.44V117.44ZM750.401 108.546L752.417 90.978L742.482 89.838L740.466 107.406L750.401 108.546ZM747.45 85.408H732.762V95.408H747.45V85.408ZM732.762 85.408C730.787 85.408 730.063 84.9473 729.844 84.7576L723.295 92.3144C725.956 94.6207 729.36 95.408 732.762 95.408V85.408ZM729.981 84.8807C729.975 84.8748 729.41 84.3512 729.41 82.056H719.41C719.41 85.7127 720.285 89.5092 723.158 92.1913L729.981 84.8807ZM729.41 82.056C729.41 80.2733 729.867 79.5132 730.217 79.1397L722.922 72.3003C720.392 74.9988 719.41 78.4627 719.41 82.056H729.41ZM730.217 79.1397C730.576 78.7571 731.099 78.416 732.33 78.416V68.416C728.76 68.416 725.443 69.6109 722.922 72.3003L730.217 79.1397ZM732.33 78.416H759.258V68.416H732.33V78.416ZM759.258 78.416C760.096 78.416 760.462 78.6398 760.786 78.9876L768.097 72.1644C765.734 69.6322 762.644 68.416 759.258 68.416V78.416ZM761.03 79.2313C761.067 79.2653 761.108 79.3047 761.155 79.4645C761.214 79.667 761.29 80.1173 761.2 80.9278L771.139 82.0322C771.54 78.424 770.802 74.673 767.853 71.9207L761.03 79.2313ZM761.192 81.0133C760.919 83.9178 759.983 90.7279 758.345 101.616L768.234 103.104C769.86 92.2961 770.844 85.1862 771.148 81.9467L761.192 81.0133ZM758.341 101.644L756.757 112.588L766.654 114.02L768.238 103.076L758.341 101.644ZM764.706 117.304C772.33 111.586 779.261 106.65 785.503 102.488L779.956 94.1677C773.527 98.4542 766.442 103.502 758.706 109.304L764.706 117.304ZM785.35 102.586C785.74 102.346 785.999 102.234 786.136 102.186C786.271 102.14 786.228 102.176 786.042 102.176V92.176C783.791 92.176 781.762 93.0528 780.109 94.0697L785.35 102.586ZM723.258 185.552C726.471 185.552 728.997 183.745 730.778 181.902C732.616 179.999 734.303 177.407 735.892 174.382L727.04 169.73C725.653 172.369 724.484 174.025 723.586 174.954C722.63 175.943 722.541 175.552 723.258 175.552V185.552ZM735.892 174.382C739.209 168.069 742.103 158.376 744.715 145.705L734.921 143.687C732.348 156.168 729.675 164.715 727.04 169.73L735.892 174.382ZM736.568 140.896C729.102 147.281 723.425 153.252 719.793 158.808L728.163 164.28C731.058 159.852 735.941 154.591 743.068 148.496L736.568 140.896ZM719.733 158.901C716.326 164.374 714.226 169.776 714.226 174.936H724.226C724.226 172.416 725.294 168.89 728.222 164.187L719.733 158.901ZM714.226 174.936C714.226 177.256 714.615 179.895 716.172 182.064C717.949 184.539 720.61 185.552 723.258 185.552V175.552C723.163 175.552 723.32 175.536 723.599 175.666C723.905 175.808 724.149 176.028 724.295 176.232C724.42 176.405 724.394 176.455 724.34 176.229C724.286 176.002 724.226 175.589 724.226 174.936H714.226Z" fill="white"/>
</svg>
